<svg width="17" height="17" viewBox="0 0 17 17" fill="none" xmlns="http://www.w3.org/2000/svg">
<path d="M14.2277 2.37892C12.9049 1.06343 11.167 0.247029 9.30992 0.0686961C7.45286 -0.109637 5.5914 0.361111 4.04237 1.40082C2.49335 2.44053 1.35251 3.98493 0.814057 5.77113C0.275601 7.55734 0.372807 9.47496 1.08913 11.1976C1.80545 12.9202 3.09661 14.3413 4.74283 15.219C6.38905 16.0967 8.28858 16.3769 10.1181 16.0116C11.9476 15.6464 13.594 14.6585 14.777 13.216C15.9601 11.7735 16.6067 9.96552 16.6067 8.09992C16.6082 7.03637 16.3987 5.98311 15.9904 5.00108C15.582 4.01906 14.9829 3.12781 14.2277 2.37892ZM8.50671 15.0629C7.12956 15.0629 5.78334 14.6545 4.63828 13.8894C3.49322 13.1243 2.60074 12.0369 2.07373 10.7645C1.54672 9.49222 1.40884 8.09219 1.67751 6.7415C1.94617 5.39081 2.60934 4.15012 3.58313 3.17633C4.55692 2.20254 5.79761 1.53938 7.1483 1.27071C8.49899 1.00204 9.899 1.13993 11.1713 1.66695C12.4436 2.19396 13.5311 3.08642 14.2962 4.23148C15.0613 5.37654 15.4697 6.72276 15.4697 8.09992C15.4676 9.94597 14.7333 11.7158 13.4279 13.0212C12.1226 14.3265 10.3528 15.0608 8.50671 15.0629Z" fill="#FF8500"/>
<path d="M8.50651 1.90576C7.28146 1.90576 6.0839 2.26904 5.06531 2.94965C4.04671 3.63025 3.2528 4.59761 2.784 5.72942C2.31519 6.86122 2.19252 8.10663 2.43152 9.30815C2.67051 10.5097 3.26045 11.6133 4.12669 12.4796C4.99294 13.3458 6.09661 13.9357 7.29813 14.1747C8.49964 14.4137 9.74504 14.2911 10.8768 13.8223C12.0087 13.3535 12.976 12.5596 13.6566 11.541C14.3372 10.5224 14.7005 9.32482 14.7005 8.09976C14.6989 6.4575 14.0458 4.88295 12.8846 3.72169C11.7233 2.56044 10.1488 1.90735 8.50651 1.90576ZM8.50651 13.1558C7.50653 13.1558 6.52899 12.8592 5.69754 12.3037C4.86608 11.7481 4.21805 10.9585 3.83537 10.0346C3.4527 9.11074 3.35257 8.09416 3.54765 7.11339C3.74274 6.13262 4.22429 5.23172 4.93138 4.52463C5.63847 3.81753 6.53936 3.336 7.52013 3.14091C8.50089 2.94583 9.5175 3.04596 10.4414 3.42863C11.3652 3.81131 12.1549 4.45935 12.7104 5.2908C13.266 6.12226 13.5625 7.09978 13.5625 8.09976C13.5609 9.44021 13.0277 10.7253 12.0799 11.6731C11.132 12.621 9.84696 13.1542 8.50651 13.1558Z" fill="#FF8500"/>
<path d="M9.81297 6.68889C9.81297 6.8398 9.87292 6.98452 9.97963 7.09123C10.0863 7.19794 10.2311 7.25789 10.382 7.25789C10.5329 7.25789 10.6776 7.19794 10.7843 7.09123C10.891 6.98452 10.951 6.8398 10.951 6.68889C10.9438 6.40343 10.8697 6.12363 10.7348 5.87198C10.5998 5.62033 10.4078 5.40383 10.174 5.23988C9.84818 5.00056 9.47188 4.83909 9.07396 4.76788V4.34488C9.07396 4.19397 9.01401 4.04924 8.9073 3.94254C8.80059 3.83583 8.65587 3.77588 8.50496 3.77588C8.35405 3.77588 8.20932 3.83583 8.10262 3.94254C7.99591 4.04924 7.93596 4.19397 7.93596 4.34488V4.76788C7.53804 4.83909 7.16175 5.00056 6.83597 5.23988C6.5969 5.39876 6.40083 5.61428 6.2652 5.86726C6.12957 6.12025 6.05859 6.40284 6.05859 6.68988C6.05859 6.97693 6.12957 7.25952 6.2652 7.5125C6.40083 7.76548 6.5969 7.981 6.83597 8.13988C7.16212 8.37855 7.53826 8.53996 7.93596 8.61188V10.2519C7.49696 10.1089 7.19896 9.81288 7.19896 9.50288C7.19896 9.35198 7.13901 9.20725 7.0323 9.10054C6.92559 8.99383 6.78087 8.93388 6.62996 8.93388C6.47905 8.93388 6.33432 8.99383 6.22762 9.10054C6.12091 9.20725 6.06096 9.35198 6.06096 9.50288C6.06847 9.78828 6.14266 10.068 6.27757 10.3196C6.41249 10.5712 6.6044 10.7877 6.83797 10.9519C7.16387 11.191 7.54013 11.3524 7.93797 11.4239V11.8509C7.93797 12.0018 7.99792 12.1465 8.10463 12.2532C8.21134 12.3599 8.35607 12.4199 8.50697 12.4199C8.65788 12.4199 8.80261 12.3599 8.90932 12.2532C9.01603 12.1465 9.07597 12.0018 9.07597 11.8509V11.4239C9.47382 11.3524 9.85006 11.191 10.176 10.9519C10.415 10.793 10.6111 10.5775 10.7467 10.3245C10.8824 10.0715 10.9533 9.78894 10.9533 9.50189C10.9533 9.21485 10.8824 8.93224 10.7467 8.67926C10.6111 8.42628 10.415 8.21076 10.176 8.05188C9.84995 7.81296 9.47376 7.65153 9.07597 7.57988V5.93489C9.51597 6.08289 9.81297 6.37889 9.81297 6.68889ZM9.07597 10.2509V8.75089C9.51597 8.89389 9.81297 9.19089 9.81297 9.50089C9.81297 9.81088 9.51597 10.1079 9.07797 10.2509H9.07597ZM7.93797 5.93489V7.43489C7.49897 7.29189 7.20097 6.99489 7.20097 6.68489C7.20097 6.37489 7.49897 6.08289 7.93797 5.93489Z" fill="#FF8500"/>
</svg>
