<svg width="16" height="16" viewBox="0 0 16 16" fill="none" xmlns="http://www.w3.org/2000/svg">
<path d="M11.9052 9.70538C11.8977 9.4011 11.7715 9.11183 11.5537 8.89923C11.3359 8.68664 11.0436 8.56755 10.7392 8.56738H9.90625V8.06738C9.90572 7.75804 9.7826 7.46152 9.56386 7.24278C9.34512 7.02404 9.04859 6.90092 8.73924 6.90039H7.07225C6.763 6.90092 6.46657 7.02407 6.24799 7.24284C6.0294 7.46161 5.90651 7.75813 5.90625 8.06738V8.56738H5.07225C4.76292 8.56765 4.46633 8.69072 4.2477 8.90955C4.02906 9.12837 3.90625 9.42506 3.90625 9.73439V12.7344C3.90651 13.0436 4.02944 13.34 4.24805 13.5586C4.46666 13.7772 4.76309 13.9001 5.07225 13.9004H10.7432C11.0525 13.9001 11.349 13.7772 11.5678 13.5586C11.7866 13.3401 11.9097 13.0436 11.9102 12.7344V9.70538H11.9052ZM10.5932 9.56738L7.90625 10.8464L5.21825 9.56738H10.5932ZM6.90625 8.06738C6.90612 8.0455 6.91031 8.02381 6.91859 8.00356C6.92688 7.9833 6.93909 7.96488 6.95451 7.94936C6.96994 7.93384 6.98828 7.92152 7.00848 7.91312C7.02869 7.90471 7.05037 7.90039 7.07225 7.90039H8.74324C8.78753 7.90039 8.83001 7.91799 8.86133 7.94931C8.89265 7.98063 8.91025 8.02309 8.91025 8.06738V8.56738H6.91025L6.90625 8.06738ZM10.7392 12.9004H5.07225C5.02822 12.9004 4.986 12.8829 4.95486 12.8518C4.92373 12.8206 4.90625 12.7784 4.90625 12.7344V10.5254L7.69125 11.8524C7.75846 11.8842 7.83191 11.9006 7.90625 11.9004C7.9807 11.9005 8.0542 11.8838 8.12125 11.8514L10.9062 10.5254V12.7344C10.9063 12.7779 10.8892 12.8197 10.8587 12.8507C10.8282 12.8818 10.7867 12.8996 10.7432 12.9004H10.7392Z" fill="#FF8500"/>
<path d="M13.6153 2.23416H12.3153V1.55516C12.3153 1.4077 12.2568 1.26627 12.1525 1.162C12.0482 1.05773 11.9068 0.999161 11.7593 0.999161C11.6119 0.999161 11.4705 1.05773 11.3662 1.162C11.2619 1.26627 11.2033 1.4077 11.2033 1.55516V2.23416H4.60335V1.55516C4.60653 1.48023 4.59451 1.40542 4.56802 1.33525C4.54154 1.26508 4.50115 1.201 4.44925 1.14685C4.39735 1.09271 4.33503 1.04962 4.26605 1.02019C4.19707 0.990753 4.12285 0.975586 4.04785 0.975586C3.97285 0.975586 3.89862 0.990753 3.82964 1.02019C3.76065 1.04962 3.69833 1.09271 3.64644 1.14685C3.59454 1.201 3.55415 1.26508 3.52766 1.33525C3.50118 1.40542 3.48916 1.48023 3.49234 1.55516V2.23416H2.19234C1.71759 2.23469 1.26245 2.42358 0.926849 2.75937C0.591245 3.09516 0.402608 3.55041 0.402344 4.02516V14.2102C0.402873 14.6847 0.591625 15.1397 0.9272 15.4753C1.26278 15.8109 1.71776 15.9996 2.19234 16.0002H13.6113C14.0861 15.9999 14.5413 15.8113 14.8771 15.4756C15.2129 15.14 15.4018 14.6849 15.4023 14.2102V4.02516C15.4018 3.55101 15.2135 3.09638 14.8786 2.76073C14.5437 2.42508 14.0895 2.23575 13.6153 2.23416ZM1.51535 7.05016H14.2934V14.2102C14.2931 14.3903 14.2213 14.563 14.0938 14.6903C13.9663 14.8176 13.7935 14.8892 13.6133 14.8892H2.19635C2.01635 14.8889 1.84379 14.8173 1.71651 14.69C1.58923 14.5627 1.51761 14.3902 1.51735 14.2102L1.51535 7.05016ZM4.04335 4.89316C4.19081 4.89316 4.33222 4.83459 4.43649 4.73032C4.54076 4.62605 4.59935 4.48462 4.59935 4.33716V3.35016H11.1993V4.33716C11.1993 4.48462 11.2579 4.62605 11.3622 4.73032C11.4665 4.83459 11.6079 4.89316 11.7553 4.89316C11.9028 4.89316 12.0442 4.83459 12.1485 4.73032C12.2528 4.62605 12.3113 4.48462 12.3113 4.33716V3.35016H13.6113C13.7915 3.35016 13.9643 3.42166 14.0918 3.54897C14.2193 3.67627 14.2911 3.84899 14.2914 4.02916V5.94215H1.51735V4.02916C1.51761 3.84916 1.58923 3.67661 1.71651 3.54933C1.84379 3.42205 2.01635 3.35042 2.19635 3.35016H3.49634V4.33716C3.49632 4.48307 3.55366 4.62314 3.65599 4.72716C3.75832 4.83117 3.89746 4.8908 4.04335 4.89316Z" fill="#FF8500"/>
</svg>
