<svg width="17" height="16" viewBox="0 0 17 16" fill="none" xmlns="http://www.w3.org/2000/svg">
<path d="M13.9046 6.59806V6.60605C13.9241 6.68655 13.9748 6.75601 14.0455 6.79914C14.1162 6.84227 14.2011 6.85556 14.2816 6.83607C14.3621 6.81657 14.4316 6.7659 14.4747 6.6952C14.5179 6.62449 14.5311 6.53956 14.5116 6.45907V6.44906C14.5018 6.4092 14.4842 6.37168 14.4598 6.33863C14.4355 6.30558 14.4049 6.27763 14.3697 6.25641C14.3346 6.2352 14.2956 6.22111 14.255 6.21496C14.2144 6.2088 14.173 6.21071 14.1331 6.22056C14.0933 6.23041 14.0557 6.24801 14.0227 6.27236C13.9896 6.29671 13.9617 6.32735 13.9405 6.36249C13.9193 6.39764 13.9052 6.43662 13.899 6.47721C13.8929 6.5178 13.8948 6.55921 13.9046 6.59907V6.59806Z" fill="#FF8500" stroke="#FF8500" stroke-width="0.5"/>
<path d="M4.93506 6.94289C4.89568 6.92931 4.85399 6.92372 4.81243 6.92646C4.77087 6.92919 4.73027 6.94019 4.69302 6.95882C4.65577 6.97745 4.62261 7.00333 4.59549 7.03493C4.56836 7.06654 4.54782 7.10324 4.53505 7.14289C4.30402 7.83108 4.31455 8.57747 4.56489 9.25887C4.81524 9.94027 5.29044 10.516 5.91206 10.8909C5.98301 10.9337 6.06806 10.9466 6.14851 10.9267C6.22896 10.9069 6.29821 10.8558 6.34105 10.7849C6.38388 10.7139 6.39678 10.6289 6.3769 10.5484C6.35703 10.468 6.306 10.3987 6.23506 10.3559C5.73523 10.0543 5.35314 9.59139 5.15188 9.04343C4.95063 8.49547 4.94222 7.89527 5.12806 7.34189C5.14178 7.30303 5.14766 7.26184 5.14537 7.22069C5.14308 7.17955 5.13267 7.13926 5.11472 7.10216C5.09678 7.06506 5.07166 7.03189 5.04082 7.00455C5.00999 6.97721 4.97404 6.95626 4.93506 6.94289Z" fill="#FF8500" stroke="#FF8500" stroke-width="0.5"/>
<path d="M6.6687 5.75378C7.11648 5.58795 7.60164 5.55036 8.06962 5.64522C8.5376 5.74009 8.96983 5.96366 9.31768 6.29078C9.34756 6.31888 9.38269 6.34082 9.42105 6.35535C9.4594 6.36988 9.50024 6.37672 9.54124 6.37546C9.58224 6.37421 9.62259 6.36489 9.65998 6.34804C9.69738 6.3312 9.73109 6.30715 9.7592 6.27727C9.7873 6.2474 9.80924 6.21228 9.82377 6.17393C9.8383 6.13557 9.84514 6.09473 9.84388 6.05373C9.84263 6.01274 9.83331 5.97239 9.81646 5.93499C9.79962 5.89759 9.77557 5.86388 9.74569 5.83578C9.31296 5.42897 8.77528 5.151 8.19316 5.03316C7.61103 4.91533 7.00758 4.96229 6.45069 5.16877C6.37299 5.19768 6.30994 5.25628 6.27543 5.33167C6.24092 5.40706 6.23778 5.49307 6.26669 5.57078C6.2956 5.64848 6.35419 5.71152 6.42958 5.74602C6.50497 5.78053 6.59099 5.78368 6.6687 5.75477V5.75378Z" fill="#FF8500" stroke="#FF8500" stroke-width="0.5"/>
<path d="M16.0932 8.25081H13.7422V7.60482C13.7419 7.45372 13.6818 7.30889 13.575 7.20206C13.4681 7.09522 13.3233 7.03508 13.1722 7.03481H12.7532C12.4611 5.68766 11.6567 4.50682 10.5101 3.74176C9.36342 2.9767 7.96427 2.68734 6.60821 2.93481C6.56783 2.94217 6.52929 2.9574 6.49479 2.97965C6.4603 3.0019 6.43053 3.03072 6.40717 3.06448C6.38382 3.09823 6.36734 3.13625 6.35868 3.17637C6.35003 3.2165 6.34935 3.25793 6.35671 3.29831C6.36406 3.3387 6.3793 3.37723 6.40154 3.41173C6.42379 3.44622 6.45262 3.47599 6.48637 3.49935C6.52012 3.5227 6.55815 3.53918 6.59827 3.54784C6.63839 3.5565 6.67983 3.55717 6.72021 3.54981C7.89421 3.33586 9.10562 3.57768 10.1075 4.22597C11.1094 4.87426 11.8263 5.88022 12.1122 7.03881H10.4052C10.2541 7.03908 10.1093 7.09921 10.0024 7.20605C9.89561 7.31289 9.83547 7.45772 9.83521 7.60881V8.25481H7.48521C7.40254 8.25508 7.32334 8.28803 7.26488 8.34649C7.20643 8.40494 7.17347 8.48415 7.17321 8.56681V10.4828C7.17309 10.7647 7.28036 11.0361 7.47321 11.2418V12.8418C6.78591 12.8282 6.11002 12.6635 5.49343 12.3596C4.87684 12.0557 4.33464 11.6198 3.90525 11.083C3.47586 10.5462 3.16979 9.92146 3.00872 9.25316C2.84765 8.58486 2.83553 7.88932 2.97321 7.21582C2.98142 7.17563 2.98163 7.13422 2.97383 7.09395C2.96604 7.05369 2.95039 7.01535 2.92778 6.98113C2.90517 6.94691 2.87604 6.91748 2.84205 6.89452C2.80807 6.87156 2.76989 6.85552 2.72971 6.84731C2.68952 6.8391 2.64812 6.83889 2.60785 6.84669C2.56758 6.85448 2.52925 6.87013 2.49503 6.89274C2.46081 6.91536 2.43138 6.94448 2.40842 6.97847C2.38546 7.01245 2.36941 7.05063 2.36121 7.09082C2.20493 7.85544 2.21905 8.64512 2.40257 9.40367C2.58609 10.1622 2.93451 10.871 3.42303 11.4796C3.91156 12.0883 4.52819 12.5818 5.22907 12.9251C5.92996 13.2683 6.69788 13.453 7.47821 13.4658V14.5978C7.4781 14.6269 7.47977 14.6559 7.48321 14.6848C6.35294 14.6706 5.24569 14.3634 4.26973 13.7931C3.29376 13.2228 2.48249 12.4091 1.91523 11.4314C1.34797 10.4536 1.04414 9.34545 1.03344 8.21514C1.02275 7.08483 1.30555 5.97109 1.85421 4.98281L2.90521 6.03781C2.93417 6.06694 2.96861 6.09007 3.00653 6.10585C3.04446 6.12164 3.08513 6.12978 3.12621 6.12981H5.09521L7.02221 8.05681C7.08082 8.11543 7.16032 8.14836 7.24321 8.14836C7.3261 8.14836 7.40559 8.11543 7.46421 8.05681C7.52282 7.9982 7.55575 7.9187 7.55575 7.83581C7.55575 7.75292 7.52282 7.67343 7.46421 7.61481L5.53721 5.68781V3.72281C5.53718 3.68173 5.52903 3.64106 5.51325 3.60314C5.49746 3.56521 5.47434 3.53078 5.44521 3.50181L4.38821 2.44681C5.17352 2.01103 6.04022 1.74179 6.93423 1.65591C7.82824 1.57002 8.73035 1.66934 9.58426 1.94766C10.4382 2.22598 11.2255 2.67732 11.8972 3.27352C12.5689 3.86971 13.1105 4.59797 13.4882 5.41281C13.5231 5.488 13.5864 5.54626 13.6642 5.57476C13.7421 5.60327 13.828 5.59969 13.9032 5.56481C13.9784 5.52994 14.0367 5.46662 14.0652 5.38879C14.0937 5.31097 14.0901 5.225 14.0552 5.14981C13.6351 4.24328 13.0299 3.43473 12.2785 2.77616C11.5271 2.11759 10.6462 1.6236 9.69244 1.32596C8.73867 1.02831 7.73315 0.933612 6.74057 1.04795C5.74799 1.16228 4.79033 1.48311 3.92921 1.98981L3.02921 1.08981C2.98557 1.04602 2.92991 1.01619 2.86929 1.00408C2.80866 0.991982 2.74581 0.998162 2.68871 1.02184C2.6316 1.04552 2.58282 1.08562 2.54854 1.13707C2.51427 1.18852 2.49606 1.24899 2.49621 1.31081V3.08281H0.721207C0.659388 3.08266 0.598917 3.10088 0.547468 3.13515C0.496019 3.16942 0.455911 3.21821 0.432233 3.27531C0.408555 3.33242 0.402375 3.39527 0.414477 3.45589C0.42658 3.51651 0.456418 3.57218 0.500207 3.61581L1.40021 4.51581C0.75816 5.60254 0.414978 6.83976 0.405476 8.10195C0.395975 9.36413 0.720493 10.6064 1.34611 11.7027C1.97172 12.7989 2.87617 13.7102 3.9677 14.3441C5.05922 14.9779 6.29899 15.3118 7.56121 15.3118H15.3922C15.5812 15.3115 15.7624 15.2363 15.8961 15.1027C16.0297 14.969 16.1049 14.7878 16.1052 14.5988V11.2388C16.2986 11.0331 16.406 10.7612 16.4052 10.4788V8.56282C16.4052 8.48007 16.3723 8.40071 16.3138 8.3422C16.2553 8.28368 16.176 8.25081 16.0932 8.25081ZM3.12221 2.06681L4.91221 3.85281V5.06181L3.12221 3.26781V2.06681ZM2.68021 3.70981L4.47021 5.50981H3.26021L1.47321 3.70981H2.68021ZM10.4612 7.65981H13.1172V8.25081H10.4612V7.65981ZM15.4802 14.5998C15.4802 14.6114 15.4779 14.6228 15.4735 14.6335C15.4691 14.6442 15.4626 14.6539 15.4544 14.662C15.4463 14.6702 15.4366 14.6767 15.4259 14.6811C15.4152 14.6855 15.4038 14.6878 15.3922 14.6878H8.18221C8.15939 14.687 8.13777 14.6774 8.12191 14.661C8.10605 14.6446 8.09719 14.6226 8.09721 14.5998V11.5768C8.15931 11.5874 8.2222 11.5928 8.28521 11.5928H10.8622C10.89 11.8188 10.9996 12.0268 11.1701 12.1776C11.3407 12.3285 11.5605 12.4117 11.7882 12.4117C12.0159 12.4117 12.2357 12.3285 12.4063 12.1776C12.5769 12.0268 12.6864 11.8188 12.7142 11.5928H15.2902C15.3532 11.5927 15.4161 11.5874 15.4782 11.5768V13.1828H13.4292C13.3463 13.1828 13.2668 13.2157 13.2082 13.2743C13.1496 13.3329 13.1167 13.4124 13.1167 13.4953C13.1167 13.5782 13.1496 13.6577 13.2082 13.7163C13.2668 13.7749 13.3463 13.8078 13.4292 13.8078H15.4802V14.5998ZM11.4802 11.4818V10.9328H12.0962V11.4828C12.0962 11.5645 12.0638 11.6428 12.006 11.7006C11.9482 11.7584 11.8699 11.7908 11.7882 11.7908C11.7065 11.7908 11.6282 11.7584 11.5704 11.7006C11.5127 11.6428 11.4802 11.5645 11.4802 11.4828V11.4818ZM15.6362 10.8248C15.591 10.8703 15.5372 10.9063 15.478 10.9309C15.4188 10.9554 15.3553 10.968 15.2912 10.9678H12.7212V10.6828C12.7212 10.5839 12.6819 10.489 12.612 10.4191C12.542 10.3491 12.4471 10.3098 12.3482 10.3098H11.2282C11.1293 10.3098 11.0344 10.3491 10.9645 10.4191C10.8945 10.489 10.8552 10.5839 10.8552 10.6828V10.9708H8.28621C8.15686 10.9705 8.03289 10.919 7.94143 10.8276C7.84997 10.7361 7.79847 10.6122 7.79821 10.4828V8.88281H15.7812V10.4828C15.7804 10.6114 15.7286 10.7344 15.6372 10.8248H15.6362Z" fill="#FF8500" stroke="#FF8500" stroke-width="0.5"/>
<path d="M11.9006 13.187C11.8282 13.1869 11.7579 13.2118 11.7018 13.2577C11.6458 13.3035 11.6073 13.3674 11.593 13.4384C11.5788 13.5094 11.5896 13.5831 11.6236 13.6471C11.6576 13.711 11.7128 13.7611 11.7796 13.789C11.8465 13.8168 11.9209 13.8206 11.9903 13.7997C12.0596 13.7788 12.1195 13.7345 12.1599 13.6743C12.2002 13.6142 12.2184 13.5419 12.2115 13.4698C12.2045 13.3977 12.1727 13.3303 12.1216 13.279C12.0629 13.2205 11.9835 13.1874 11.9006 13.187Z" fill="#FF8500" stroke="#FF8500" stroke-width="0.5"/>
</svg>
