<svg width="19" height="19" viewBox="0 0 19 19" fill="none" xmlns="http://www.w3.org/2000/svg">
<path d="M9.5 19C14.7467 19 19 14.7467 19 9.5C19 4.25329 14.7467 0 9.5 0C4.25329 0 0 4.25329 0 9.5C0 14.7467 4.25329 19 9.5 19Z" fill="#F15249"/>
<path d="M5.51367 13.7853L10.6383 18.9099C14.9537 18.4004 18.3701 15.014 18.9096 10.6985L13.755 5.54395L5.51367 13.7853Z" fill="#AD0E0E"/>
<path d="M13.9947 11.5979C14.4142 12.0174 14.4142 12.7367 13.9947 13.1562L13.1555 13.9953C12.736 14.4149 12.0167 14.4149 11.5972 13.9953L5.00412 7.40227C4.58456 6.98271 4.58456 6.26347 5.00412 5.84391L5.87321 4.97482C6.29277 4.55527 7.01201 4.55527 7.43157 4.97482L13.9947 11.5979Z" fill="white"/>
<path d="M10.5192 8.09131L8.0918 10.5188L11.5981 13.9951C12.0177 14.4147 12.7369 14.4147 13.1565 13.9951L14.0256 13.126C14.4451 12.7065 14.4451 11.9872 14.0256 11.5676L10.5192 8.09131Z" fill="#D6D6D6"/>
<path d="M11.5972 5.00461C12.0167 4.58505 12.736 4.58505 13.1555 5.00461L14.0246 5.8737C14.4442 6.29325 14.4442 7.0125 14.0246 7.43205L7.4016 13.9951C6.98204 14.4147 6.2628 14.4147 5.84324 13.9951L5.00412 13.156C4.58456 12.7365 4.58456 12.0172 5.00412 11.5977L11.5972 5.00461Z" fill="white"/>
</svg>
