<svg width="17" height="17" viewBox="0 0 17 17" fill="none" xmlns="http://www.w3.org/2000/svg">
<path d="M7.81836 12.6758C7.81709 11.6162 8.20866 10.5938 8.91797 9.80664C9.58846 9.06066 10.4995 8.57344 11.4922 8.42969V4.96094L10.6992 5.75391C10.5844 5.86804 10.4295 5.93178 10.2676 5.93164C10.1045 5.93185 9.94836 5.86818 9.83203 5.75391C9.71753 5.63869 9.65235 5.48275 9.65235 5.32031C9.65235 5.15788 9.71753 5.00194 9.83203 4.88672L11.6738 3.04688C11.7301 2.98946 11.7969 2.94498 11.8711 2.91406C11.9453 2.88314 12.0251 2.86672 12.1055 2.86719C12.1862 2.86645 12.2672 2.88118 12.3418 2.91211C12.4164 2.94304 12.4826 2.98922 12.5391 3.04688L14.3789 4.88672C14.4934 5.00194 14.5586 5.15788 14.5586 5.32031C14.5586 5.48275 14.4934 5.63869 14.3789 5.75391C14.2631 5.86779 14.1077 5.93144 13.9453 5.93164C13.7829 5.93176 13.6273 5.86806 13.5117 5.75391L12.7188 4.96094V8.42969C13.7195 8.57005 14.639 9.05656 15.3184 9.80469C16.034 10.5896 16.4312 11.6136 16.4316 12.6758C16.4324 13.2432 16.3198 13.8044 16.1016 14.3281C15.8834 14.8519 15.5635 15.3275 15.1602 15.7266C14.761 16.1298 14.2854 16.4498 13.7617 16.668C13.238 16.8861 12.6767 16.9986 12.1094 16.998C10.9676 16.9928 9.87478 16.5349 9.07031 15.7246C8.26585 14.9143 7.81544 13.8176 7.81836 12.6758ZM9.04297 12.6758C9.03951 13.4931 9.36079 14.2782 9.93555 14.8594C10.5103 15.4405 11.292 15.7698 12.1094 15.7754C12.9315 15.7754 13.7194 15.4486 14.3008 14.8672C14.8821 14.2858 15.209 13.498 15.209 12.6758C15.2034 11.8584 14.8741 11.0767 14.293 10.502C13.7118 9.92719 12.9267 9.60592 12.1094 9.60938C11.2965 9.6107 10.5182 9.93509 9.94336 10.5098C9.3685 11.0844 9.04456 11.8629 9.04297 12.6758ZM4.14453 14.5156V13.2891H2.91602C2.75344 13.2891 2.59738 13.2243 2.48242 13.1094C2.36746 12.9944 2.30274 12.8384 2.30274 12.6758C2.303 12.5133 2.36947 12.3571 2.48438 12.2422C2.59928 12.1273 2.75352 12.0628 2.91602 12.0625H4.14453V9.5625C3.14366 9.42255 2.22203 8.93597 1.54297 8.1875C0.827317 7.40254 0.430135 6.37863 0.42969 5.31641C0.429115 4.74905 0.54159 4.18779 0.759768 3.66406C0.977945 3.14033 1.29797 2.66477 1.70117 2.26563C2.10005 1.86262 2.57624 1.54239 3.09961 1.32422C3.62299 1.10605 4.18297 0.993776 4.75 0.994142C5.89179 0.999435 6.9846 1.45926 7.78906 2.26953C8.59353 3.07981 9.04394 4.17461 9.04102 5.31641C9.04172 6.37586 8.65022 7.39813 7.94141 8.18555C7.27094 8.93262 6.35889 9.42002 5.36524 9.5625V12.0625H6.59375C6.7559 12.0633 6.91288 12.1293 7.02735 12.2441C7.14182 12.359 7.20482 12.5136 7.20508 12.6758C7.20508 12.838 7.14187 12.9945 7.02735 13.1094C6.91282 13.2243 6.75598 13.2885 6.59375 13.2891H5.36524V14.5156C5.36524 14.6782 5.30051 14.8343 5.18555 14.9492C5.07059 15.0642 4.91453 15.1289 4.75196 15.1289C4.58955 15.1286 4.43506 15.0642 4.32031 14.9492C4.20557 14.8343 4.14063 14.678 4.14063 14.5156H4.14453ZM1.66016 5.31641C1.66571 6.13356 1.99498 6.91384 2.57617 7.48828C3.15737 8.06273 3.94261 8.38485 4.75977 8.38086C5.57233 8.38007 6.35103 8.05681 6.92578 7.48242C7.50054 6.90804 7.82485 6.12897 7.82617 5.31641C7.8299 4.49898 7.50841 3.71401 6.9336 3.13281C6.35878 2.55162 5.57719 2.22209 4.75977 2.2168C4.35208 2.2164 3.94898 2.29531 3.57227 2.45117C3.19555 2.60704 2.85269 2.83668 2.56446 3.125C2.27622 3.41333 2.04832 3.75409 1.89258 4.13086C1.73684 4.50763 1.65573 4.91263 1.65625 5.32031L1.66016 5.31641Z" fill="#FF8500"/>
</svg>
