<svg width="17" height="17" viewBox="0 0 17 17" fill="none" xmlns="http://www.w3.org/2000/svg">
<path d="M15.8056 14.7498H15.1796V13.3098C15.1732 13.1483 15.1045 12.9955 14.9879 12.8834C14.8713 12.7714 14.7158 12.7089 14.5541 12.7089C14.3924 12.7089 14.237 12.7714 14.1204 12.8834C14.0038 12.9955 13.9351 13.1483 13.9286 13.3098V14.7498H2.91564V13.7168H11.7056C11.8672 13.7104 12.02 13.6416 12.132 13.5251C12.2441 13.4085 12.3066 13.253 12.3066 13.0913C12.3066 12.9296 12.2441 12.7742 12.132 12.6576C12.02 12.541 11.8672 12.4723 11.7056 12.4658H2.91564V11.5658C3.48027 11.4428 3.99262 11.1472 4.38164 10.7198C4.42679 10.6655 4.48403 10.6224 4.5488 10.5941C4.61357 10.5658 4.68406 10.553 4.75464 10.5568C4.82639 10.5537 4.8979 10.5672 4.96362 10.5961C5.02934 10.6251 5.08752 10.6688 5.13364 10.7238C5.29845 10.9558 5.513 11.148 5.76162 11.2864C6.01024 11.4248 6.28665 11.506 6.57064 11.5238H6.59364C6.88071 11.5057 7.16015 11.4239 7.41165 11.2843C7.66315 11.1447 7.88041 10.9509 8.04764 10.7168C8.09406 10.6608 8.15326 10.6168 8.22026 10.5884C8.28726 10.56 8.3601 10.5482 8.43264 10.5538C8.50286 10.5523 8.57253 10.5665 8.63655 10.5954C8.70057 10.6243 8.75732 10.6672 8.80264 10.7208C8.96755 10.9529 9.18226 11.1452 9.43107 11.2836C9.67987 11.4221 9.95648 11.5031 10.2406 11.5208H10.2636C10.5507 11.5027 10.8301 11.4209 11.0816 11.2813C11.3332 11.1417 11.5504 10.9479 11.7176 10.7138C11.7629 10.6606 11.8196 10.6183 11.8835 10.59C11.9474 10.5618 12.0168 10.5484 12.0866 10.5508H12.0966C12.1681 10.5477 12.2393 10.5612 12.3047 10.5902C12.3701 10.6191 12.4279 10.6628 12.4736 10.7178C12.6743 10.9526 12.9198 11.1449 13.1958 11.2837C13.4717 11.4224 13.7725 11.5047 14.0806 11.5258H14.1156C14.6295 11.5354 15.1273 11.3469 15.5058 10.9993C15.8844 10.6516 16.1146 10.1716 16.1486 9.65884C16.1512 9.20389 16.0601 8.75329 15.881 8.33507C15.7019 7.91685 15.4386 7.53996 15.1076 7.22784C14.4412 6.60247 13.5595 6.25762 12.6456 6.26484H9.04564V4.83484C9.41209 4.70567 9.72952 4.46612 9.95426 4.14916C10.179 3.8322 10.3 3.45339 10.3006 3.06484C10.2276 2.41186 9.98106 1.79034 9.58664 1.26484C9.26464 0.724838 8.94564 0.279838 8.93264 0.264838C8.87491 0.183938 8.79876 0.117945 8.71047 0.0723166C8.62218 0.0266885 8.52429 0.0027373 8.42491 0.00244413C8.32553 0.00215097 8.2275 0.0255243 8.13894 0.0706307C8.05039 0.115737 7.97384 0.18128 7.91564 0.261838C7.90264 0.280838 7.58364 0.725838 7.26164 1.26184C6.86722 1.78734 6.62068 2.40886 6.54764 3.06184C6.54729 3.4503 6.66728 3.82933 6.89112 4.14682C7.11495 4.46431 7.43164 4.70466 7.79764 4.83484V6.27184H4.19764C3.74588 6.26267 3.29682 6.34364 2.87671 6.51002C2.4566 6.6764 2.07387 6.92485 1.75089 7.24085C1.42791 7.55685 1.17115 7.93406 0.99563 8.35043C0.820109 8.7668 0.729344 9.21398 0.72864 9.66584C0.712339 10.0039 0.7917 10.3398 0.957615 10.6348C1.12353 10.9299 1.36927 11.1721 1.66664 11.3338V14.7498H1.04164C0.957394 14.7465 0.873335 14.7602 0.794508 14.7901C0.71568 14.82 0.643709 14.8655 0.58291 14.9239C0.522112 14.9823 0.473741 15.0524 0.440699 15.13C0.407657 15.2076 0.390625 15.291 0.390625 15.3753C0.390625 15.4597 0.407657 15.5431 0.440699 15.6207C0.473741 15.6982 0.522112 15.7683 0.58291 15.8267C0.643709 15.8852 0.71568 15.9307 0.794508 15.9606C0.873335 15.9905 0.957394 16.0042 1.04164 16.0008H15.8056C15.8899 16.0042 15.9739 15.9905 16.0528 15.9606C16.1316 15.9307 16.2036 15.8852 16.2644 15.8267C16.3252 15.7683 16.3735 15.6982 16.4066 15.6207C16.4396 15.5431 16.4567 15.4597 16.4567 15.3753C16.4567 15.291 16.4396 15.2076 16.4066 15.13C16.3735 15.0524 16.3252 14.9823 16.2644 14.9239C16.2036 14.8655 16.1316 14.82 16.0528 14.7901C15.9739 14.7602 15.8899 14.7465 15.8056 14.7498ZM8.33764 1.90184L8.42364 1.76084L8.50464 1.89484C8.76161 2.24537 8.94651 2.64338 9.04864 3.06584C9.04218 3.2274 8.97345 3.3802 8.85685 3.49223C8.74026 3.60426 8.58483 3.66682 8.42314 3.66682C8.26145 3.66682 8.10602 3.60426 7.98943 3.49223C7.87283 3.3802 7.8041 3.2274 7.79764 3.06584C7.89855 2.64582 8.08212 2.25012 8.33764 1.90184ZM2.64464 10.3378C2.5181 10.3277 2.39461 10.2938 2.28064 10.2378C2.17579 10.186 2.09017 10.1022 2.03622 9.99843C1.98228 9.89467 1.96281 9.77642 1.98064 9.66084C1.98001 9.37292 2.03762 9.08784 2.15001 8.82276C2.2624 8.55767 2.42724 8.31807 2.63463 8.11834C2.84202 7.91861 3.08766 7.7629 3.35678 7.66056C3.6259 7.55822 3.91294 7.51137 4.20064 7.52284H12.6466C12.936 7.5127 13.2244 7.56039 13.4951 7.66313C13.7657 7.76587 14.0132 7.92159 14.2229 8.12116C14.4326 8.32074 14.6004 8.56016 14.7165 8.82539C14.8325 9.09063 14.8944 9.37636 14.8986 9.66584C14.8998 9.75632 14.8756 9.84532 14.8288 9.92274C14.7819 10.0002 14.7143 10.0629 14.6336 10.1038C14.4734 10.2037 14.2918 10.2644 14.1036 10.2808H14.0856C13.8345 10.2366 13.6058 10.1087 13.4366 9.91784C13.2716 9.72612 13.0673 9.57213 12.8375 9.46632C12.6078 9.36051 12.3579 9.30535 12.105 9.30459C11.852 9.30384 11.6018 9.35749 11.3714 9.46192C11.141 9.56635 10.9358 9.71911 10.7696 9.90984C10.5416 10.1788 10.3626 10.2748 10.2696 10.2748H10.2466C10.1636 10.2748 9.98764 10.1818 9.76664 9.91784C9.60685 9.7281 9.40797 9.57511 9.18361 9.46931C8.95925 9.36352 8.71468 9.30741 8.46664 9.30484C8.20754 9.29407 7.9494 9.34251 7.71184 9.44648C7.47427 9.55045 7.26353 9.70721 7.09564 9.90484C6.86764 10.1738 6.68864 10.2698 6.59564 10.2698H6.57664C6.49364 10.2698 6.31764 10.1768 6.09664 9.91284C5.93366 9.7189 5.72983 9.56338 5.49973 9.45741C5.26963 9.35143 5.01896 9.29763 4.76564 9.29984H4.75764C4.50575 9.29585 4.2561 9.34757 4.02653 9.45129C3.79695 9.55502 3.59313 9.70818 3.42964 9.89984C3.22311 10.1139 2.95807 10.2625 2.66764 10.3268L2.64464 10.3378Z" fill="#FF8500"/>
</svg>
