<svg width="13" height="19" viewBox="0 0 13 19" fill="none" xmlns="http://www.w3.org/2000/svg">
<path d="M12.2754 0.546982C12.2754 0.402174 12.2179 0.263284 12.1155 0.160889C12.0131 0.0584938 11.8742 0.000976563 11.7294 0.000976562H0.819427C0.674619 0.000976562 0.535744 0.0584938 0.43335 0.160889C0.330955 0.263284 0.273438 0.402174 0.273438 0.546982C0.273438 0.69179 0.330955 0.830665 0.43335 0.93306C0.535744 1.03545 0.674619 1.09297 0.819427 1.09297H1.36543V7.12898C1.36514 7.2303 1.39305 7.32969 1.44603 7.41605C1.49901 7.50241 1.57498 7.57233 1.66544 7.61798L5.54143 9.55597L4.77643 11.085L2.52544 10.95C2.42425 10.9437 2.32332 10.9658 2.23399 11.0137C2.14467 11.0617 2.07049 11.1336 2.01979 11.2214C1.96909 11.3092 1.94389 11.4094 1.94701 11.5107C1.95012 11.612 1.98143 11.7105 2.03743 11.795L3.28043 13.676L2.03743 15.558C1.98143 15.6425 1.95012 15.7409 1.94701 15.8423C1.94389 15.9436 1.96909 16.0438 2.01979 16.1316C2.07049 16.2194 2.14467 16.2913 2.23399 16.3392C2.32332 16.3872 2.42425 16.4092 2.52544 16.403L4.77344 16.268L5.78242 18.318C5.82754 18.4093 5.8973 18.4861 5.9838 18.5399C6.07029 18.5936 6.17009 18.6221 6.27193 18.6221C6.37376 18.6221 6.47357 18.5936 6.56007 18.5399C6.64657 18.4861 6.71632 18.4093 6.76143 18.318L7.77142 16.268L10.0184 16.403C10.1196 16.4091 10.2204 16.3869 10.3097 16.3389C10.3989 16.291 10.4731 16.2191 10.5238 16.1314C10.5746 16.0437 10.5999 15.9437 10.597 15.8424C10.5941 15.7411 10.5631 15.6426 10.5074 15.558L9.26443 13.676L10.5074 11.795C10.5631 11.7103 10.5941 11.6119 10.597 11.5106C10.5999 11.4093 10.5746 11.3092 10.5238 11.2215C10.4731 11.1338 10.3989 11.062 10.3097 11.014C10.2204 10.9661 10.1196 10.9439 10.0184 10.95L7.76743 11.085L7.00443 9.55597L10.8794 7.61798C10.9697 7.57215 11.0456 7.50218 11.0985 7.41586C11.1515 7.32954 11.1795 7.23025 11.1794 7.12898V1.09297H11.7244C11.8692 1.09297 12.0081 1.03545 12.1105 0.93306C12.2129 0.830665 12.2704 0.69179 12.2704 0.546982H12.2754ZM4.63943 1.09297H7.91144V5.44397L6.27544 6.26198L4.63943 5.44397V1.09297ZM7.47743 12.193L8.99843 12.102L8.15843 13.373C8.10009 13.4621 8.06902 13.5664 8.06902 13.673C8.06902 13.7795 8.10009 13.8838 8.15843 13.973L8.99843 15.244L7.47743 15.153C7.37043 15.1461 7.26377 15.1709 7.17076 15.2242C7.07775 15.2776 7.00253 15.3571 6.95444 15.453L6.27443 16.833L5.59444 15.453C5.54642 15.3573 5.47133 15.2779 5.37852 15.2245C5.28572 15.1712 5.17927 15.1463 5.07243 15.153L3.55144 15.244L4.39143 13.975C4.45026 13.886 4.48163 13.7817 4.48163 13.675C4.48163 13.5683 4.45026 13.464 4.39143 13.375L3.55243 12.104L5.07343 12.195C5.17995 12.2014 5.28602 12.1764 5.37846 12.123C5.4709 12.0697 5.54565 11.9904 5.59343 11.895L6.27544 10.532L6.95644 11.895C7.00464 11.9902 7.07964 12.0693 7.17221 12.1224C7.26479 12.1755 7.37089 12.2004 7.47743 12.194V12.193ZM10.0934 6.79297L6.27544 8.70097L2.45743 6.79297V1.09297H3.54742V5.78198C3.54721 5.88315 3.57516 5.98239 3.62814 6.06857C3.68113 6.15476 3.75706 6.22449 3.84743 6.26997L6.02943 7.36197C6.10547 7.39953 6.18912 7.41908 6.27393 7.41908C6.35873 7.41908 6.4424 7.39953 6.51843 7.36197L8.70042 6.26997C8.79065 6.22431 8.86646 6.15454 8.91942 6.06839C8.97238 5.98224 9.00042 5.88311 9.00043 5.78198V1.09297H10.0914L10.0934 6.79297Z" fill="#FF8500"/>
</svg>
