<svg width="20" height="16" viewBox="0 0 20 16" fill="none" xmlns="http://www.w3.org/2000/svg">
<path d="M19.0576 4.27705C19.167 4.23816 19.2616 4.16638 19.3285 4.07158C19.3954 3.97677 19.4313 3.86358 19.4313 3.74755C19.4313 3.63151 19.3954 3.51832 19.3285 3.42351C19.2616 3.32871 19.167 3.25693 19.0576 3.21805L10.0276 0.031047C9.90662 -0.0116511 9.77464 -0.0116511 9.65363 0.031047L0.624632 3.21805C0.515307 3.25693 0.420698 3.32871 0.353796 3.42351C0.286893 3.51832 0.250977 3.63151 0.250977 3.74755C0.250977 3.86358 0.286893 3.97677 0.353796 4.07158C0.420698 4.16638 0.515307 4.23816 0.624632 4.27705L4.19963 5.54905V9.21504C4.19963 9.82005 4.83063 10.332 6.07563 10.736C7.29565 11.1081 8.56519 11.2922 9.84063 11.282C11.1161 11.2922 12.3856 11.1081 13.6056 10.736C14.8506 10.336 15.4816 9.82005 15.4816 9.21504V5.54905L16.9586 5.02405V10.104C16.6287 10.2203 16.3429 10.436 16.1408 10.7215C15.9387 11.007 15.8301 11.3482 15.8301 11.698C15.8301 12.0479 15.9387 12.3891 16.1408 12.6746C16.3429 12.9601 16.6287 13.1758 16.9586 13.292V15.438C16.9586 15.5871 17.0178 15.73 17.1232 15.8354C17.2286 15.9408 17.3716 16 17.5206 16C17.6697 16 17.8126 15.9408 17.918 15.8354C18.0234 15.73 18.0826 15.5871 18.0826 15.438V13.292C18.4126 13.1758 18.6983 12.9601 18.9005 12.6746C19.1026 12.3891 19.2111 12.0479 19.2111 11.698C19.2111 11.3482 19.1026 11.007 18.9005 10.7215C18.6983 10.436 18.4126 10.2203 18.0826 10.104V4.62405L19.0576 4.27705ZM17.5196 12.264C17.4075 12.264 17.2979 12.2308 17.2046 12.1685C17.1114 12.1062 17.0387 12.0176 16.9958 11.914C16.9529 11.8104 16.9416 11.6964 16.9635 11.5864C16.9854 11.4764 17.0394 11.3754 17.1187 11.2961C17.198 11.2168 17.299 11.1628 17.409 11.1409C17.519 11.1191 17.633 11.1303 17.7366 11.1732C17.8402 11.2161 17.9288 11.2888 17.9911 11.382C18.0534 11.4753 18.0866 11.5849 18.0866 11.697C18.0866 11.8474 18.0269 11.9916 17.9206 12.098C17.8142 12.2043 17.67 12.264 17.5196 12.264ZM9.84063 1.15805L17.1866 3.75005L9.84063 6.36105L2.49463 3.75005L9.84063 1.15805ZM14.3576 9.13105C13.9533 9.43348 13.4878 9.64404 12.9936 9.74805C11.9659 10.0261 10.9053 10.1643 9.84063 10.159C8.77594 10.1643 7.71539 10.0261 6.68763 9.74805C6.19349 9.64408 5.72799 9.43351 5.32363 9.13105V5.94805L9.64963 7.48705C9.77125 7.53022 9.90402 7.53022 10.0256 7.48705L14.3536 5.94805V9.13105H14.3576Z" fill="#FF8500"/>
</svg>
