<svg width="17" height="17" viewBox="0 0 17 17" fill="none" xmlns="http://www.w3.org/2000/svg">
<path d="M0.5625 13.665C0.5625 12.324 2.07025 11.335 4.40625 10.781C4.57862 10.7414 4.76019 10.7719 4.91016 10.8657C5.06012 10.9594 5.16605 11.1087 5.20605 11.281C5.22576 11.3663 5.22931 11.4548 5.21484 11.5412C5.20038 11.6276 5.1685 11.7103 5.12207 11.7846C5.07564 11.8589 5.01469 11.9232 4.94336 11.9741C4.87203 12.0249 4.79142 12.0613 4.70605 12.081C2.92105 12.504 1.88867 13.181 1.88867 13.666C1.88867 14.588 4.85369 15.666 8.55469 15.666C12.2557 15.666 15.2207 14.587 15.2207 13.666C15.2207 13.181 14.1874 12.503 12.3984 12.081C12.2277 12.0392 12.0804 11.9319 11.9883 11.7822C11.8962 11.6324 11.8665 11.4522 11.9062 11.281C11.9257 11.1955 11.9619 11.1146 12.0127 11.0432C12.0635 10.9717 12.1278 10.9112 12.2021 10.8647C12.2765 10.8182 12.3598 10.7868 12.4463 10.7724C12.5328 10.7581 12.6207 10.761 12.7061 10.781C15.0461 11.336 16.5547 12.324 16.5547 13.665C16.5547 15.69 12.9547 17 8.55469 17C4.15469 17 0.5625 15.69 0.5625 13.665ZM7.96289 13.965L7.69141 13.4201C6.87934 11.6721 5.9115 10.0008 4.79883 8.42695C4.07354 7.44218 3.7652 6.2112 3.94141 5.00093C4.09068 3.98372 4.57041 3.04398 5.30664 2.32637C6.04287 1.60875 6.99493 1.15317 8.01562 1.02998C8.66976 0.953017 9.33268 1.01557 9.96094 1.21333C10.5892 1.41109 11.1681 1.73966 11.6602 2.17744C12.1523 2.61522 12.5468 3.15217 12.8164 3.75313C13.086 4.35408 13.2249 5.00537 13.2246 5.66401C13.2271 6.54431 12.9778 7.40701 12.5059 8.1501L12.1328 8.74409L12.0977 8.79316C11.2355 10.0884 10.4451 11.4299 9.73047 12.812L9.1582 13.9641C9.10278 14.0754 9.01725 14.1689 8.91113 14.2338C8.80501 14.2987 8.68298 14.3324 8.55859 14.331C8.43503 14.3315 8.3133 14.2975 8.20801 14.2329C8.10272 14.1682 8.01834 14.0755 7.96289 13.965ZM8.16211 2.35396C7.43499 2.44407 6.75812 2.76984 6.2334 3.2812C5.70868 3.79256 5.36567 4.46144 5.25684 5.18599C5.13034 6.05119 5.3507 6.93129 5.87109 7.63399C6.89546 9.06822 7.79466 10.5882 8.55762 12.177C9.28568 10.767 10.091 9.39841 10.9697 8.0771L11.0029 8.02803C11.1869 7.74203 11.2739 7.60194 11.3799 7.43794C11.7149 6.90681 11.8927 6.29195 11.8936 5.66401C11.8933 5.22563 11.8068 4.79152 11.6387 4.38667C11.4705 3.98182 11.2235 3.6142 10.9131 3.30464C10.6027 2.99508 10.2344 2.74978 9.8291 2.58272C9.4238 2.41565 8.99014 2.33009 8.55176 2.33101C8.42343 2.33142 8.29543 2.33905 8.16797 2.35396H8.16211ZM6.55762 5.66401C6.55762 5.13358 6.76848 4.62502 7.14355 4.24995C7.51863 3.87488 8.02718 3.66401 8.55762 3.66401C9.08805 3.66401 9.59661 3.87488 9.97168 4.24995C10.3468 4.62502 10.5576 5.13358 10.5576 5.66401C10.5576 6.19445 10.3468 6.70325 9.97168 7.07832C9.59661 7.45339 9.08805 7.66401 8.55762 7.66401C8.02805 7.66269 7.52048 7.45154 7.14648 7.07661C6.77249 6.70168 6.5625 6.19358 6.5625 5.66401H6.55762ZM7.8916 5.66401C7.89107 5.75167 7.90814 5.83853 7.94141 5.91963C7.97468 6.00073 8.02302 6.0744 8.08496 6.13643C8.1469 6.19846 8.22071 6.24757 8.30176 6.28096C8.38281 6.31435 8.46996 6.3314 8.55762 6.33101C8.64516 6.33101 8.73163 6.31376 8.8125 6.28023C8.89337 6.24669 8.96646 6.19764 9.02832 6.13569C9.09018 6.07374 9.13944 6.00006 9.17285 5.91914C9.20626 5.83822 9.22376 5.75156 9.22363 5.66401C9.22337 5.48737 9.15313 5.31807 9.02832 5.19307C8.90351 5.06807 8.73426 4.99755 8.55762 4.99702C8.3816 4.99808 8.21277 5.06901 8.08887 5.19404C7.96496 5.31907 7.89595 5.48799 7.89648 5.66401H7.8916Z" fill="#FF8500"/>
</svg>
