<svg width="18" height="13" viewBox="0 0 18 13" fill="none" xmlns="http://www.w3.org/2000/svg">
<path d="M6.86142 12.0511C6.39691 12.0706 5.94391 11.9048 5.60166 11.5901C5.43816 11.4285 5.31103 11.2356 5.22666 11.0218C5.14229 10.8079 5.1023 10.5776 5.11142 10.3479C5.11142 10.1479 5.119 9.94813 5.129 9.75613C5.139 9.56413 5.17208 9.35594 5.20908 9.13894C5.24726 8.92477 5.29962 8.71351 5.36533 8.50613C5.43127 8.30064 5.51883 8.103 5.62705 7.91629C5.731 7.72879 5.86441 7.55831 6.01963 7.41043C6.18148 7.2581 6.37091 7.139 6.57822 7.05886C6.80746 6.97016 7.05118 6.92585 7.29697 6.92801C7.43832 6.9462 7.57148 7.00373 7.68174 7.09402C7.79674 7.17002 7.93413 7.25983 8.08213 7.35183C8.24412 7.45242 8.4186 7.52894 8.60166 7.5823C8.80889 7.64851 9.02474 7.68381 9.24228 7.68386C9.45987 7.68426 9.67579 7.64896 9.88291 7.5823C10.0673 7.52835 10.2442 7.45187 10.4083 7.35183C10.5543 7.25983 10.6957 7.17002 10.8087 7.09402C10.9198 7.00389 11.0535 6.94641 11.1954 6.92801C11.4412 6.92585 11.6849 6.97016 11.9142 7.05886C12.1218 7.13944 12.3118 7.25848 12.4747 7.41043C12.6257 7.56104 12.7576 7.73108 12.8634 7.91629C12.9674 8.10537 13.0554 8.30255 13.1271 8.50613C13.1891 8.71396 13.2389 8.92515 13.2755 9.13894C13.3161 9.34262 13.3435 9.54891 13.3575 9.75613C13.3695 9.95613 13.3771 10.1449 13.3771 10.3479C13.3868 10.5774 13.3494 10.806 13.2657 11.0198C13.182 11.2337 13.0536 11.4282 12.8907 11.5901C12.547 11.9049 12.0928 12.0706 11.6271 12.0511H6.86142ZM6.78721 7.59988C6.65224 7.6538 6.52777 7.73086 6.42002 7.8284C6.30605 7.93901 6.2092 8.06605 6.13291 8.20535C6.04551 8.35651 5.97423 8.51789 5.92002 8.68386C5.86063 8.86697 5.81634 9.05413 5.78721 9.24441C5.75063 9.42897 5.72569 9.61528 5.71299 9.80301C5.70099 9.98101 5.69346 10.1639 5.69346 10.3499C5.68307 10.5015 5.7062 10.653 5.75986 10.7952C5.81353 10.9374 5.89602 11.0671 6.004 11.1741C6.11996 11.2782 6.25535 11.3589 6.40244 11.4104C6.54953 11.4619 6.70584 11.4839 6.86142 11.4749H11.629C11.7846 11.4839 11.9409 11.4619 12.088 11.4104C12.2351 11.3589 12.3705 11.2782 12.4864 11.1741C12.594 11.0667 12.6786 10.9372 12.7325 10.7952C12.7865 10.6531 12.8081 10.5016 12.7989 10.3499C12.7989 10.1639 12.7913 9.98101 12.7813 9.80301C12.7713 9.625 12.7401 9.44441 12.7071 9.24441C12.6751 9.05415 12.629 8.86706 12.5685 8.68386C12.5147 8.51868 12.4453 8.35745 12.3614 8.20535C12.2819 8.06768 12.1846 7.941 12.0724 7.8284C11.9629 7.72912 11.8357 7.65191 11.6974 7.59988C11.5534 7.5413 11.3996 7.5103 11.2442 7.50808C11.2212 7.52208 11.1871 7.54326 11.1271 7.58426C11.008 7.65826 10.8748 7.74611 10.7208 7.84011C10.5165 7.96714 10.2975 8.06568 10.0665 8.13308C9.80211 8.22151 9.52497 8.26685 9.24619 8.26785C8.96933 8.2673 8.69395 8.22194 8.43174 8.13308C8.20043 8.0649 7.97897 7.9664 7.77353 7.84011C7.62153 7.74611 7.47833 7.65826 7.36533 7.58426C7.30833 7.54326 7.26519 7.52208 7.24619 7.50808C7.08888 7.51072 6.93338 7.54169 6.78721 7.59988ZM13.9552 10.4104C13.96 10.3901 13.9619 10.3707 13.961 10.3499C13.961 10.1679 13.9515 9.9944 13.9435 9.8284H15.504C15.6599 9.83729 15.8175 9.81542 15.9649 9.76394C16.1123 9.71247 16.2469 9.63356 16.3634 9.52957C16.4691 9.42142 16.5499 9.29079 16.6017 9.14871C16.6534 9.00662 16.6756 8.85613 16.6642 8.70535C16.6642 8.52135 16.6645 8.33633 16.6485 8.16433C16.6369 7.97507 16.6132 7.78625 16.5782 7.59988C16.5421 7.41182 16.496 7.22624 16.4396 7.04324C16.3889 6.87653 16.3155 6.71731 16.2247 6.56863C16.1508 6.42935 16.0578 6.30225 15.9454 6.19168C15.8347 6.0933 15.7079 6.01438 15.5704 5.95926C15.4241 5.90609 15.2707 5.87467 15.1153 5.86551C15.0743 5.88716 15.0344 5.91147 14.9962 5.93777C14.8812 6.01777 14.742 6.1014 14.586 6.2034C14.3827 6.3323 14.1615 6.43096 13.9298 6.49636C13.6669 6.58538 13.3909 6.63075 13.1134 6.63113C12.8359 6.63011 12.56 6.58477 12.297 6.49636C12.0657 6.42981 11.8446 6.33121 11.6407 6.2034H11.631C11.746 6.04575 11.8413 5.87468 11.9142 5.69363C11.9284 5.70013 11.9422 5.70827 11.9552 5.71707C12.1185 5.81343 12.2927 5.88863 12.4747 5.94168C12.6809 6.00992 12.8981 6.04582 13.1153 6.04715C13.3325 6.04582 13.5478 6.00992 13.754 5.94168C13.9368 5.89003 14.1125 5.81476 14.2755 5.71707C14.4275 5.61707 14.5648 5.52644 14.6798 5.45144C14.7912 5.35924 14.9287 5.30153 15.0724 5.28543C15.3162 5.28362 15.558 5.32793 15.7853 5.41629C15.9931 5.49646 16.1832 5.6175 16.3458 5.7698C16.502 5.91906 16.6336 6.09153 16.7364 6.28152C16.8439 6.46526 16.9303 6.66051 16.9942 6.86355C17.0609 7.07135 17.1132 7.2833 17.1505 7.49832C17.1895 7.71532 17.2135 7.92836 17.2325 8.12136C17.2515 8.31436 17.2501 8.50835 17.2501 8.70535C17.2614 8.9359 17.2232 9.16632 17.1388 9.38113C17.0543 9.59594 16.9252 9.79033 16.7599 9.95144C16.4176 10.2633 15.9667 10.4281 15.504 10.4104H13.9552ZM3.0001 10.4104C2.53465 10.4305 2.08051 10.2655 1.73643 9.95144C1.57206 9.78982 1.44324 9.59589 1.35947 9.38113C1.27571 9.16638 1.23857 8.93557 1.2501 8.70535C1.2472 8.51045 1.25469 8.31555 1.27158 8.12136C1.28721 7.91243 1.31399 7.70442 1.35166 7.49832C1.38884 7.28383 1.43932 7.07201 1.50205 6.86355C1.56936 6.66179 1.65556 6.46688 1.75986 6.28152C1.86347 6.09094 1.99634 5.91838 2.15439 5.7698C2.31555 5.61755 2.50435 5.49845 2.71103 5.41824C2.93848 5.3306 3.18018 5.28631 3.42392 5.28738C3.56826 5.30339 3.70635 5.36109 3.81846 5.4534C3.93346 5.5354 4.07089 5.62107 4.21689 5.71707C4.38039 5.81509 4.55673 5.89037 4.74033 5.94168C4.94656 6.00977 5.16183 6.04567 5.379 6.04715C5.59619 6.04582 5.81344 6.00992 6.01963 5.94168C6.17696 5.89274 6.32792 5.83097 6.47471 5.75613C6.55175 5.93323 6.64877 6.10097 6.76377 6.25613C6.58429 6.35962 6.39452 6.44107 6.19541 6.49832C5.93308 6.58671 5.65778 6.63206 5.38096 6.63308C5.10153 6.63194 4.8238 6.5866 4.55869 6.49832C4.3288 6.43141 4.10901 6.33283 3.90635 6.20535C3.75035 6.11335 3.6131 6.01972 3.5001 5.93972C3.4341 5.90072 3.39991 5.87846 3.38291 5.86746C3.22614 5.87623 3.07152 5.90765 2.92393 5.96121C2.78634 6.01726 2.65901 6.09607 2.54697 6.19363C2.43565 6.30437 2.34074 6.43069 2.26572 6.56863C2.17699 6.71937 2.10505 6.87887 2.05088 7.04519C1.99611 7.22794 1.95312 7.41362 1.92197 7.60183C1.88467 7.78803 1.85911 7.97686 1.8458 8.16629C1.8358 8.33829 1.82822 8.5233 1.82822 8.7073C1.81687 8.85807 1.839 9.00859 1.89072 9.15066C1.94245 9.29274 2.02337 9.42334 2.129 9.53152C2.24624 9.63616 2.38288 9.71636 2.53135 9.76785C2.67981 9.81934 2.83739 9.83993 2.99424 9.83035H4.54307C4.53507 10.0043 4.53135 10.1778 4.53135 10.3518V10.4143L3.0001 10.4104ZM7.49424 6.22097C7.26895 6.00239 7.09117 5.7394 6.9708 5.44949C6.85043 5.15958 6.7908 4.84735 6.79502 4.53347C6.7907 4.21884 6.85045 3.90819 6.9708 3.61746C7.09115 3.32672 7.26881 3.06355 7.49424 2.84402C7.71345 2.619 7.97749 2.44092 8.26767 2.32058C8.55786 2.20025 8.86762 2.139 9.18174 2.14285C9.49591 2.13865 9.80947 2.19827 10.0997 2.31863C10.3899 2.43899 10.6522 2.61872 10.8712 2.84402C11.097 3.06326 11.2742 3.3247 11.3946 3.61551C11.515 3.90631 11.5752 4.21878 11.5704 4.53347C11.575 4.8474 11.515 5.15953 11.3946 5.44949C11.2742 5.73945 11.0968 6.0026 10.8712 6.22097C10.6518 6.44545 10.3896 6.62216 10.0997 6.74246C9.80978 6.86276 9.49757 6.92338 9.18369 6.92019C8.86946 6.92312 8.55791 6.86292 8.26767 6.74246C7.97744 6.622 7.71405 6.44359 7.49424 6.21902V6.22097ZM7.90635 3.25613C7.73469 3.42128 7.59895 3.62 7.50791 3.84011C7.41687 4.06023 7.3722 4.29532 7.37705 4.53347C7.37227 4.77043 7.41684 5.00607 7.50791 5.22488C7.59898 5.44369 7.73486 5.64136 7.90635 5.80496C8.07112 5.97614 8.26904 6.11205 8.48838 6.2034C8.70771 6.29474 8.94417 6.33983 9.18174 6.33621C9.4199 6.33984 9.65706 6.29473 9.87705 6.2034C10.097 6.11206 10.2955 5.97621 10.461 5.80496C10.6325 5.64136 10.7684 5.44369 10.8595 5.22488C10.9505 5.00607 10.9951 4.77043 10.9903 4.53347C10.9952 4.29532 10.9505 4.06023 10.8595 3.84011C10.7684 3.62 10.6327 3.42128 10.461 3.25613C10.2953 3.08541 10.0951 2.9503 9.8751 2.85965C9.65509 2.76899 9.41965 2.7244 9.18174 2.72879C8.9445 2.72434 8.70967 2.7672 8.49033 2.85769C8.27099 2.94818 8.07144 3.08375 7.90635 3.25418V3.25613ZM12.1075 5.08816C12.142 4.90591 12.1576 4.71893 12.1544 4.53347V4.4573C12.4289 4.62056 12.7433 4.70513 13.0626 4.70144C13.3007 4.70466 13.536 4.65994 13.756 4.56863C13.9759 4.47732 14.1741 4.34306 14.3399 4.17215C14.51 4.006 14.6442 3.80615 14.7345 3.58621C14.8248 3.36626 14.8696 3.13056 14.8653 2.89285C14.87 2.65538 14.8267 2.41917 14.7364 2.19949C14.6461 1.97981 14.5103 1.78102 14.3399 1.61551C14.1745 1.44399 13.9759 1.30874 13.756 1.21707C13.536 1.1254 13.3009 1.07904 13.0626 1.0823C12.8245 1.07848 12.587 1.1234 12.3673 1.21511C12.1476 1.30683 11.95 1.44357 11.7853 1.61551C11.5499 1.84421 11.3824 2.13456 11.3048 2.4534C11.3048 2.4434 11.2883 2.44377 11.2853 2.43777C11.1448 2.29439 10.9904 2.16565 10.8243 2.05301C10.9435 1.73333 11.1314 1.44221 11.3751 1.2034C11.5937 0.977575 11.8563 0.800353 12.1466 0.679958C12.4369 0.559563 12.7483 0.499331 13.0626 0.504177C13.3768 0.499862 13.6884 0.559595 13.9786 0.679958C14.2689 0.800322 14.5312 0.978003 14.7501 1.2034C14.9751 1.42264 15.1532 1.68666 15.2735 1.97683C15.3939 2.26701 15.4551 2.57874 15.4513 2.89285C15.4554 3.20671 15.3939 3.51702 15.2735 3.80691C15.1532 4.0968 14.9753 4.35974 14.7501 4.5784C14.5313 4.80367 14.2687 4.98147 13.9786 5.10183C13.6885 5.22219 13.3786 5.28179 13.0646 5.27761C12.7342 5.27943 12.406 5.2147 12.1017 5.08621L12.1075 5.08816ZM3.63096 4.57644C3.40581 4.35775 3.22787 4.0968 3.10752 3.80691C2.98716 3.51703 2.9277 3.20475 2.93174 2.8909C2.9282 2.57697 2.98915 2.26681 3.10947 1.97683C3.22979 1.68686 3.4062 1.4226 3.63096 1.2034C3.85072 0.977718 4.11525 0.800318 4.40635 0.679958C4.69745 0.559599 5.00935 0.49959 5.32432 0.504177C5.6385 0.499862 5.95008 0.559595 6.24033 0.679958C6.53058 0.800322 6.79289 0.978003 7.01182 1.2034C7.25099 1.44313 7.43665 1.73247 7.55674 2.0491C7.38837 2.16189 7.23264 2.29196 7.09189 2.43777C7.08589 2.43777 7.08032 2.44354 7.07432 2.44754C6.99758 2.13007 6.83182 1.84127 6.5958 1.61551C6.43214 1.44383 6.23445 1.30684 6.01572 1.21511C5.79699 1.12339 5.56147 1.07871 5.32432 1.0823C5.08594 1.07845 4.84907 1.12341 4.629 1.21511C4.40894 1.30682 4.21011 1.44351 4.04502 1.61551C3.87407 1.78067 3.73921 1.97976 3.64853 2.19949C3.55786 2.41922 3.51491 2.65519 3.51963 2.89285C3.51524 3.13076 3.55788 3.3662 3.64853 3.58621C3.73919 3.80621 3.8743 4.00639 4.04502 4.17215C4.21051 4.34349 4.41095 4.47729 4.63096 4.56863C4.85096 4.65997 5.08613 4.7052 5.32432 4.70144C5.64018 4.70389 5.95134 4.62338 6.22471 4.46511V4.53347C6.22537 4.71878 6.24097 4.9054 6.27158 5.08816C5.97279 5.21546 5.65105 5.27951 5.32627 5.27957C5.00984 5.2846 4.69678 5.22487 4.40439 5.10379C4.11201 4.9827 3.84728 4.80371 3.62705 4.57644H3.63096Z" fill="#FF8500" stroke="#FF8500" stroke-width="0.5"/>
</svg>
