<svg width="19" height="19" viewBox="0 0 19 19" fill="none" xmlns="http://www.w3.org/2000/svg">
<g clip-path="url(#clip0_1039_538)">
<path d="M9.5 19C14.7467 19 19 14.7467 19 9.5C19 4.25329 14.7467 0 9.5 0C4.25329 0 0 4.25329 0 9.5C0 14.7467 4.25329 19 9.5 19Z" fill="#32BA7C"/>
<path d="M7.07227 13.7853L11.9571 18.6702C16.0029 17.5913 18.9997 13.9052 18.9997 9.49984C18.9997 9.40994 18.9997 9.32003 18.9997 9.23012L15.1637 5.69385L7.07227 13.7853Z" fill="#0AA06E"/>
<path d="M9.73951 11.6277C10.1591 12.0472 10.1591 12.7665 9.73951 13.186L8.87043 14.0551C8.45087 14.4747 7.73163 14.4747 7.31207 14.0551L3.50607 10.2192C3.08652 9.79961 3.08652 9.08036 3.50607 8.6608L4.37516 7.79172C4.79472 7.37216 5.51396 7.37216 5.93352 7.79172L9.73951 11.6277Z" fill="white"/>
<path d="M13.0659 5.00461C13.4855 4.58505 14.2047 4.58505 14.6243 5.00461L15.4934 5.8737C15.9129 6.29325 15.9129 7.0125 15.4934 7.43205L8.90032 13.9951C8.48076 14.4147 7.76152 14.4147 7.34196 13.9951L6.47287 13.1261C6.05331 12.7065 6.05331 11.9873 6.47287 11.5677L13.0659 5.00461Z" fill="white"/>
</g>
<defs>
<clipPath id="clip0_1039_538">
<rect width="19" height="19" fill="white"/>
</clipPath>
</defs>
</svg>
