<svg width="17" height="16" viewBox="0 0 17 16" fill="none" xmlns="http://www.w3.org/2000/svg">
<path d="M8.242 4.00037e-06C6.66009 0.00158591 5.11416 0.472122 3.79962 1.35213C2.48508 2.23215 1.46095 3.48213 0.856674 4.94408C0.252399 6.40602 0.0951134 8.0143 0.404698 9.56562C0.714283 11.1169 1.47684 12.5417 2.59598 13.6597C3.71512 14.7777 5.14059 15.5388 6.69222 15.8469C8.24385 16.1549 9.85197 15.996 11.3133 15.3903C12.7747 14.7845 14.0236 13.7592 14.9023 12.4437C15.781 11.1283 16.25 9.58191 16.25 8C16.25 6.94876 16.0428 5.90781 15.6403 4.93669C15.2377 3.96556 14.6477 3.08329 13.904 2.34032C13.1603 1.59735 12.2775 1.00824 11.3059 0.60667C10.3344 0.205103 9.29325 -0.00104725 8.242 4.00037e-06ZM8.25 14.4C6.9842 14.4 5.74683 14.0247 4.69435 13.3214C3.64188 12.6182 2.82158 11.6186 2.33717 10.4492C1.85277 9.27973 1.72603 7.9929 1.97298 6.75143C2.21992 5.50995 2.82946 4.36958 3.72452 3.47452C4.61958 2.57946 5.75995 1.96992 7.00143 1.72298C8.2429 1.47603 9.52973 1.60277 10.6992 2.08718C11.8686 2.57158 12.8682 3.39188 13.5714 4.44435C14.2747 5.49683 14.65 6.7342 14.65 8C14.65 9.69739 13.9757 11.3253 12.7755 12.5255C11.5753 13.7257 9.94739 14.4 8.25 14.4ZM8.65 4H7.45V8.8L11.65 11.32L12.25 10.336L8.65 8.2V4Z" fill="#FF8500"/>
</svg>
