<svg xmlns="http://www.w3.org/2000/svg" width="70" height="70" viewBox="0 0 70 70">
  <g id="Group_28367" data-name="Group 28367" transform="translate(-410 -436)">
    <rect id="Rectangle_148340" data-name="Rectangle 148340" width="70" height="70" transform="translate(410 436)" fill="#fff"/>
    <g id="Group_28320" data-name="Group 28320" transform="translate(1656 -9540.41)">
      <g id="Group_28319" data-name="Group 28319" transform="translate(-1239.629 9988.41)">
        <path id="Path_35334" data-name="Path 35334" d="M0,4.669,2.918,0H20.426l2.918,4.669H5.837L8.754,9.338H20.426l-2.918,4.669H11.672l2.918,4.669-2.918,4.668Z" fill="#838383" fill-rule="evenodd"/>
        <g id="Group_22425" data-name="Group 22425" transform="translate(15.593)">
          <path id="Path_35335" data-name="Path 35335" d="M492.282,163.088a7,7,0,1,1-7,7,7,7,0,0,1,7-7Zm0,2.918a4.085,4.085,0,1,0,4.084,4.085A4.085,4.085,0,0,0,492.282,166.006Z" transform="translate(-473.085 -153.75)" fill="#b5b5b5" fill-rule="evenodd"/>
          <path id="Path_35336" data-name="Path 35336" d="M762.381,9.338a7,7,0,1,1-7,7h0V4.669l1.459-2.335L758.3,0V10.653a6.97,6.97,0,0,1,4.085-1.315Zm0,2.918a4.085,4.085,0,0,0-4.085,4.085h0a4.085,4.085,0,1,0,4.085-4.086Z" transform="translate(-727.719)" fill="#b5b5b5" fill-rule="evenodd"/>
          <path id="Path_35337" data-name="Path 35337" d="M283.066,163.088l-2.918,4.67v9.336a2.917,2.917,0,0,1-5.835,0l-1.981,3.171a5.836,5.836,0,0,0,10.734-3.172V163.088Z" transform="translate(-272.332 -153.75)" fill="#b5b5b5"/>
        </g>
        <g id="Group_22426" data-name="Group 22426" transform="translate(27.786 25.636)">
          <path id="Path_35338" data-name="Path 35338" d="M486.721,454.583l.005.01a.77.77,0,0,1-.19.553.688.688,0,0,1-.515.191.668.668,0,0,1-.542-.241,1.05,1.05,0,0,1-.2-.689v-.685a1.052,1.052,0,0,1,.2-.688.666.666,0,0,1,.542-.244.7.7,0,0,1,.517.187.772.772,0,0,1,.189.558l-.005.01h-.189a.66.66,0,0,0-.136-.434.482.482,0,0,0-.376-.14.467.467,0,0,0-.4.192.921.921,0,0,0-.143.555v.691a.934.934,0,0,0,.143.562.467.467,0,0,0,.4.192.487.487,0,0,0,.376-.138.669.669,0,0,0,.136-.444Z" transform="translate(-485.278 -452.502)" fill="#fff"/>
          <path id="Path_35339" data-name="Path 35339" d="M516.1,453.576a.916.916,0,0,1,.184-.588.643.643,0,0,1,.987,0,.914.914,0,0,1,.184.589v.27a.915.915,0,0,1-.184.591.648.648,0,0,1-.988,0,.914.914,0,0,1-.184-.591Zm.206.272a.813.813,0,0,0,.122.46.421.421,0,0,0,.7,0,.805.805,0,0,0,.124-.459v-.271a.8.8,0,0,0-.124-.456.421.421,0,0,0-.7,0,.808.808,0,0,0-.122.456Zm.663-1.77h.25l0,.008-.376.444h-.175Z" transform="translate(-514.336 -451.83)" fill="#fff"/>
          <path id="Path_35340" data-name="Path 35340" d="M557.184,465.9l.041.179h.01l.044-.179.395-1.375h.209l-.573,1.84h-.16l-.576-1.84h.211Z" transform="translate(-552.492 -463.559)" fill="#fff"/>
          <path id="Path_35341" data-name="Path 35341" d="M585.227,450.615h-.206v-.289h.206Zm0,2.363h-.206v-1.84h.206Z" transform="translate(-579.31 -450.178)" fill="#fff"/>
          <path id="Path_35342" data-name="Path 35342" d="M596.3,454.05a.607.607,0,0,1-.486-.224.854.854,0,0,1-.189-.57v-.306a.881.881,0,0,1,.19-.579.573.573,0,0,1,.456-.23.536.536,0,0,1,.449.206.879.879,0,0,1,.16.553v.2h-1.053v.153a.743.743,0,0,0,.128.445.4.4,0,0,0,.345.177.594.594,0,0,0,.261-.053.54.54,0,0,0,.188-.151l.083.144a.6.6,0,0,1-.215.17A.725.725,0,0,1,596.3,454.05Zm-.029-1.729a.372.372,0,0,0-.315.175.759.759,0,0,0-.128.432h.848v-.078a.636.636,0,0,0-.107-.378A.345.345,0,0,0,596.268,452.321Zm.417-.515v.032H596.5l-.226-.282-.224.282h-.177V451.8l.328-.377h.148Zm-.276,2.744h-.243v-.289h.243Z" transform="translate(-589.304 -451.214)" fill="#fff"/>
          <path id="Path_35343" data-name="Path 35343" d="M623.067,465.662a.393.393,0,0,0,.281-.116.422.422,0,0,0,.121-.32h.18l.005.01a.554.554,0,0,1-.172.427.615.615,0,0,1-.9-.055.945.945,0,0,1-.171-.584v-.286a.95.95,0,0,1,.171-.584.574.574,0,0,1,.489-.229.555.555,0,0,1,.424.179.646.646,0,0,1,.162.472l0,.008h-.182a.509.509,0,0,0-.115-.349.366.366,0,0,0-.286-.13.375.375,0,0,0-.347.18.864.864,0,0,0-.109.454v.286a.867.867,0,0,0,.109.457A.376.376,0,0,0,623.067,465.662Z" transform="translate(-614.555 -462.999)" fill="#fff"/>
          <path id="Path_35344" data-name="Path 35344" d="M661.173,456.324v.469h.32v.173h-.32v1.192a.467.467,0,0,0,.051.253.156.156,0,0,0,.134.075.632.632,0,0,0,.08-.005q.039-.005.088-.015l.027.156a.42.42,0,0,1-.106.033.692.692,0,0,1-.132.013.3.3,0,0,1-.256-.122.644.644,0,0,1-.093-.387v-1.192h-.255v-.173h.255v-.469Z" transform="translate(-650.667 -455.833)" fill="#fff"/>
          <path id="Path_35345" data-name="Path 35345" d="M681.794,464.144l-.134-.01a.316.316,0,0,0-.236.1.583.583,0,0,0-.138.264V465.8h-.2v-1.84h.18l.024.3a.623.623,0,0,1,.171-.249.375.375,0,0,1,.249-.089.355.355,0,0,1,.065.006.333.333,0,0,1,.051.013Z" transform="translate(-669.871 -462.999)" fill="#fff"/>
          <path id="Path_35346" data-name="Path 35346" d="M696.85,464.745a.917.917,0,0,1,.184-.588.643.643,0,0,1,.987,0,.913.913,0,0,1,.185.589v.27a.915.915,0,0,1-.184.591.648.648,0,0,1-.988,0,.914.914,0,0,1-.184-.591Zm.206.272a.814.814,0,0,0,.122.46.422.422,0,0,0,.7,0,.805.805,0,0,0,.124-.459v-.271a.8.8,0,0,0-.124-.456.421.421,0,0,0-.7,0,.808.808,0,0,0-.122.456Z" transform="translate(-684.736 -462.999)" fill="#fff"/>
          <path id="Path_35347" data-name="Path 35347" d="M727.291,463.96l.017.3a.614.614,0,0,1,.195-.25.472.472,0,0,1,.285-.088.438.438,0,0,1,.378.183.98.98,0,0,1,.132.569V465.8h-.206v-1.12a.787.787,0,0,0-.092-.442.308.308,0,0,0-.267-.128.36.36,0,0,0-.262.1.636.636,0,0,0-.158.275V465.8h-.2v-1.84Z" transform="translate(-713.262 -462.999)" fill="#fff"/>
          <path id="Path_35348" data-name="Path 35348" d="M754.724,464.79a1.111,1.111,0,0,1,.158-.627.5.5,0,0,1,.437-.236.486.486,0,0,1,.271.076.585.585,0,0,1,.193.215l.02-.257h.173V465.8a.821.821,0,0,1-.165.547.58.58,0,0,1-.468.194.915.915,0,0,1-.234-.033.947.947,0,0,1-.222-.088l.056-.178a.726.726,0,0,0,.185.082.747.747,0,0,0,.211.03.379.379,0,0,0,.325-.141.683.683,0,0,0,.105-.413v-.223a.56.56,0,0,1-.192.19.514.514,0,0,1-.264.066.507.507,0,0,1-.434-.217.962.962,0,0,1-.157-.577Zm.206.252a.814.814,0,0,0,.107.445.358.358,0,0,0,.323.167.39.39,0,0,0,.25-.081.546.546,0,0,0,.161-.224v-.911a.628.628,0,0,0-.157-.237.357.357,0,0,0-.251-.091.352.352,0,0,0-.325.189.976.976,0,0,0-.109.491Z" transform="translate(-739.296 -462.999)" fill="#fff"/>
          <path id="Path_35349" data-name="Path 35349" d="M798.794,465.041a.969.969,0,0,1-.156.578.5.5,0,0,1-.429.216.544.544,0,0,1-.27-.065.531.531,0,0,1-.192-.187v.923h-.2V463.96h.172l.022.253a.578.578,0,0,1,.194-.213.524.524,0,0,1,.707.161,1.12,1.12,0,0,1,.156.628Zm-.208-.25a.97.97,0,0,0-.11-.492.354.354,0,0,0-.325-.19.359.359,0,0,0-.251.09.591.591,0,0,0-.154.235v.929a.517.517,0,0,0,.156.219.391.391,0,0,0,.25.079.361.361,0,0,0,.324-.17.816.816,0,0,0,.11-.449Z" transform="translate(-779.664 -462.999)" fill="#fff"/>
          <path id="Path_35350" data-name="Path 35350" d="M826.521,451.429a.613.613,0,0,1,.2-.24A.484.484,0,0,1,827,451.1a.435.435,0,0,1,.374.179.954.954,0,0,1,.131.559v1.136H827.3v-1.139a.749.749,0,0,0-.091-.423.3.3,0,0,0-.261-.128.379.379,0,0,0-.262.1.621.621,0,0,0-.167.261v1.331h-.2v-2.652h.2Z" transform="translate(-806.79 -450.178)" fill="#fff"/>
          <path id="Path_35351" data-name="Path 35351" d="M856,454.931a.591.591,0,0,1-.194.239.481.481,0,0,1-.282.084.439.439,0,0,1-.382-.2,1.083,1.083,0,0,1-.137-.611v-1.068h.2v1.071a.967.967,0,0,0,.088.479.28.28,0,0,0,.254.144.422.422,0,0,0,.285-.094.524.524,0,0,0,.157-.259v-1.34h.2v1.84h-.184Zm-.207-2.229h.25l0,.008-.376.444h-.175Z" transform="translate(-833.832 -452.418)" fill="#fff"/>
          <path id="Path_35352" data-name="Path 35352" d="M881.534,456.324v.469h.32v.173h-.32v1.192a.467.467,0,0,0,.051.253.156.156,0,0,0,.134.075.632.632,0,0,0,.08-.005c.026,0,.055-.009.088-.015l.027.156a.42.42,0,0,1-.106.033.693.693,0,0,1-.132.013.3.3,0,0,1-.256-.122.645.645,0,0,1-.093-.387v-1.192h-.255v-.173h.255v-.469Z" transform="translate(-858.411 -455.833)" fill="#fff"/>
          <path id="Path_35353" data-name="Path 35353" d="M914.422,463.96l.017.286a.588.588,0,0,1,.194-.236.488.488,0,0,1,.284-.083.416.416,0,0,1,.281.1.571.571,0,0,1,.167.3.676.676,0,0,1,.193-.289.453.453,0,0,1,.3-.105.428.428,0,0,1,.375.2,1.085,1.085,0,0,1,.133.6V465.8h-.206v-1.078a.9.9,0,0,0-.092-.476.3.3,0,0,0-.262-.138.316.316,0,0,0-.279.153.837.837,0,0,0-.122.384V465.8h-.2v-1.076a.886.886,0,0,0-.094-.473.3.3,0,0,0-.263-.141.351.351,0,0,0-.259.1.563.563,0,0,0-.14.268V465.8h-.2v-1.84Z" transform="translate(-889.681 -462.999)" fill="#fff"/>
          <path id="Path_35354" data-name="Path 35354" d="M957.833,449.489a.917.917,0,0,1,.184-.588.643.643,0,0,1,.987,0,.913.913,0,0,1,.185.589v.27a.914.914,0,0,1-.184.591.648.648,0,0,1-.988,0,.914.914,0,0,1-.184-.591Zm1.154-1.105-.005.01h-.216l-.253-.291-.255.291h-.214l-.005-.01.383-.4h.184Zm-.949,1.377a.813.813,0,0,0,.122.46.422.422,0,0,0,.7,0,.805.805,0,0,0,.124-.459v-.271a.8.8,0,0,0-.124-.456.421.421,0,0,0-.7,0,.808.808,0,0,0-.122.456Zm1.066-2.018h.228l-.267.394H958.9Z" transform="translate(-930.776 -447.743)" fill="#fff"/>
          <path id="Path_35355" data-name="Path 35355" d="M985.762,456.324v.469h.32v.173h-.32v1.192a.467.467,0,0,0,.051.253.156.156,0,0,0,.134.075.631.631,0,0,0,.08-.005q.039-.005.088-.015l.027.156a.42.42,0,0,1-.106.033.693.693,0,0,1-.132.013.3.3,0,0,1-.256-.122.645.645,0,0,1-.093-.387v-1.192H985.3v-.173h.255v-.469Z" transform="translate(-956.671 -455.833)" fill="#fff"/>
        </g>
      </g>
      <text id="KHÁCH_HÀNG_FJOB" data-name="KHÁCH HÀNG FJOB" transform="translate(-1211 10032.41)" fill="#838383" font-size="7" font-family="Roboto-Medium, Roboto" font-weight="500"><tspan x="-31.355" y="0">KHÁCH HÀNG FJOB</tspan></text>
    </g>
  </g>
</svg>
