<svg width="191" height="97" viewBox="0 0 191 97" fill="none" xmlns="http://www.w3.org/2000/svg">
<path fill-rule="evenodd" clip-rule="evenodd" d="M0.208984 15.494L9.89298 0H67.993L77.677 15.494H19.577L29.258 30.987H67.99L58.309 46.479H38.942L48.626 61.972L38.942 77.464L0.208984 15.494Z" fill="#FF8500"/>
<path fill-rule="evenodd" clip-rule="evenodd" d="M115.653 30.9868C120.249 30.9872 124.742 32.3505 128.563 34.9043C132.385 37.4582 135.363 41.0878 137.122 45.3343C138.88 49.5807 139.34 54.2533 138.443 58.7611C137.546 63.2689 135.333 67.4095 132.082 70.6593C128.832 73.9091 124.691 76.1221 120.183 77.0186C115.675 77.915 111.003 77.4545 106.757 75.6954C102.51 73.9363 98.8811 70.9575 96.3278 67.1358C93.7745 63.314 92.4118 58.821 92.412 54.2248C92.412 51.1729 93.0131 48.1509 94.1812 45.3313C95.3492 42.5118 97.0611 39.9499 99.2193 37.792C101.377 35.6341 103.94 33.9225 106.759 32.7549C109.579 31.5872 112.601 30.9864 115.653 30.9868ZM115.653 40.6678C112.972 40.6674 110.351 41.4621 108.121 42.9514C105.892 44.4406 104.154 46.5576 103.128 49.0345C102.101 51.5115 101.832 54.2372 102.355 56.8669C102.878 59.4966 104.169 61.9122 106.064 63.8083C107.96 65.7044 110.375 66.9957 113.005 67.5191C115.635 68.0424 118.36 67.7742 120.837 66.7484C123.315 65.7226 125.432 63.9852 126.922 61.7561C128.412 59.5269 129.207 56.906 129.207 54.2248C129.207 50.6297 127.779 47.1817 125.238 44.6393C122.696 42.0969 119.248 40.6683 115.653 40.6678Z" fill="#6E00C2"/>
<path fill-rule="evenodd" clip-rule="evenodd" d="M166.972 30.987C171.568 30.9874 176.061 32.3507 179.882 34.9044C183.704 37.4581 186.682 41.0876 188.44 45.334C190.199 49.5803 190.659 54.2528 189.762 58.7606C188.865 63.2683 186.652 67.4089 183.402 70.6588C180.152 73.9087 176.011 76.1219 171.504 77.0185C166.996 77.9151 162.323 77.4549 158.077 75.6961C153.831 73.9373 150.201 70.9589 147.648 67.1374C145.094 63.316 143.731 58.8231 143.731 54.227V15.494L148.571 7.747L153.415 0V35.349C157.363 32.5054 162.107 30.979 166.972 30.987ZM166.972 40.668C165.192 40.6679 163.429 41.0184 161.784 41.6997C160.139 42.381 158.644 43.3796 157.385 44.6385C156.126 45.8974 155.128 47.3919 154.447 49.0368C153.765 50.6817 153.415 52.4446 153.415 54.225C153.416 56.9057 154.211 59.5261 155.701 61.7547C157.19 63.9834 159.308 65.7203 161.784 66.7459C164.261 67.7714 166.986 68.0395 169.615 67.5163C172.245 66.9931 174.66 65.7021 176.555 63.8065C178.451 61.9109 179.741 59.4958 180.264 56.8666C180.787 54.2374 180.519 51.5121 179.493 49.0354C178.468 46.5587 176.731 44.4417 174.502 42.9522C172.273 41.4626 169.653 40.6674 166.972 40.667V40.668Z" fill="#6E00C2"/>
<path d="M87.5709 30.9868L77.8869 46.4868V77.4668C77.861 80.0172 76.8297 82.4543 75.0171 84.2486C73.2044 86.0429 70.7569 87.0494 68.2064 87.0494C65.6559 87.0494 63.2084 86.0429 61.3958 84.2486C59.5832 82.4543 58.5519 80.0172 58.5259 77.4668L51.9509 87.9888C54.222 91.4962 57.5666 94.175 61.4853 95.6251C65.404 97.0752 69.6867 97.2189 73.6938 96.0348C77.701 94.8507 81.2176 92.4022 83.7187 89.0549C86.2198 85.7077 87.5711 81.6413 87.5709 77.4628V30.9868Z" fill="#6E00C2"/>
<path d="M97.202 91.9761L97.219 92.0101C97.2583 92.6817 97.0312 93.3418 96.587 93.8471C96.3611 94.0647 96.0928 94.2335 95.7987 94.3427C95.5047 94.452 95.1912 94.4994 94.878 94.4821C94.5366 94.4964 94.1966 94.4316 93.8843 94.2928C93.5721 94.1541 93.2961 93.945 93.078 93.6821C92.5947 93.0222 92.3589 92.2133 92.412 91.3971V89.1231C92.3609 88.3077 92.5973 87.5002 93.08 86.8411C93.2969 86.576 93.5724 86.365 93.8847 86.2246C94.1971 86.0842 94.5378 86.0183 94.88 86.0321C95.193 86.013 95.5066 86.0582 95.8016 86.1648C96.0965 86.2714 96.3665 86.4373 96.595 86.6521C97.0402 87.162 97.2653 87.8276 97.221 88.5031L97.204 88.5371H96.578C96.6031 88.0183 96.4428 87.5076 96.126 87.0961C95.9637 86.9336 95.7683 86.808 95.5531 86.7278C95.338 86.6475 95.108 86.6146 94.879 86.6311C94.6234 86.6203 94.3692 86.673 94.1389 86.7843C93.9086 86.8956 93.7093 87.0621 93.559 87.2691C93.209 87.817 93.043 88.4623 93.085 89.1111V91.4051C93.0412 92.0613 93.2072 92.7144 93.559 93.2701C93.7093 93.477 93.9086 93.6436 94.1389 93.7549C94.3692 93.8662 94.6234 93.9188 94.879 93.9081C95.1074 93.9246 95.3366 93.8924 95.5516 93.8136C95.7666 93.7348 95.9624 93.6112 96.126 93.4511C96.4477 93.0298 96.608 92.5073 96.578 91.9781L97.202 91.9761Z" fill="#323232"/>
<path d="M98.267 90.8661C98.2386 90.1646 98.4538 89.4749 98.876 88.9141C99.0763 88.6744 99.3268 88.4816 99.6097 88.3493C99.8927 88.217 100.201 88.1485 100.514 88.1485C100.826 88.1485 101.134 88.217 101.417 88.3493C101.7 88.4816 101.951 88.6744 102.151 88.9141C102.576 89.475 102.792 90.1661 102.763 90.8691V91.7691C102.794 92.4736 102.579 93.167 102.154 93.7301C101.952 93.968 101.701 94.1591 101.418 94.2902C101.135 94.4212 100.827 94.4892 100.515 94.4892C100.203 94.4892 99.8949 94.4212 99.6119 94.2902C99.3289 94.1591 99.0778 93.968 98.876 93.7301C98.4512 93.1671 98.2358 92.4737 98.267 91.7691V90.8661ZM98.949 91.7661C98.9291 92.3042 99.0704 92.836 99.355 93.2931C99.4835 93.4814 99.656 93.6355 99.8575 93.7419C100.059 93.8484 100.284 93.9041 100.512 93.9041C100.739 93.9041 100.964 93.8484 101.166 93.7419C101.367 93.6355 101.54 93.4814 101.668 93.2931C101.956 92.8382 102.099 92.307 102.08 91.7691V90.8691C102.098 90.3348 101.955 89.8074 101.668 89.3561C101.54 89.1678 101.367 89.0137 101.166 88.9072C100.964 88.8007 100.739 88.7451 100.512 88.7451C100.284 88.7451 100.059 88.8007 99.8575 88.9072C99.656 89.0137 99.4835 89.1678 99.355 89.3561C99.0721 89.8088 98.9308 90.3356 98.949 90.8691V91.7661ZM101.149 85.8921H101.978L101.989 85.9201L100.742 87.3931H100.161L101.149 85.8921Z" fill="#323232"/>
<path d="M107.984 92.8228L108.119 93.4158H108.153L108.299 92.8228L109.608 88.2588H110.302L108.402 94.3588H107.872L105.959 88.2588H106.659L107.984 92.8228Z" fill="#323232"/>
<path d="M112.042 86.521H111.359V85.562H112.042V86.521ZM112.042 94.363H111.359V88.263H112.042V94.363Z" fill="#323232"/>
<path d="M115.617 94.482C115.309 94.4899 115.004 94.4271 114.724 94.2985C114.444 94.1698 114.197 93.9788 114.003 93.74C113.572 93.2057 113.349 92.533 113.377 91.847V90.831C113.351 90.1362 113.574 89.4552 114.006 88.91C114.182 88.674 114.41 88.4821 114.673 88.3495C114.936 88.2169 115.226 88.1472 115.521 88.146C115.806 88.132 116.09 88.1868 116.349 88.3057C116.608 88.4246 116.835 88.6041 117.01 88.829C117.388 89.3639 117.575 90.0107 117.541 90.665V91.334H114.048V91.841C114.028 92.3658 114.176 92.8832 114.471 93.318C114.597 93.5045 114.768 93.6564 114.968 93.7593C115.168 93.8623 115.391 93.9131 115.616 93.907C115.914 93.9147 116.21 93.8545 116.482 93.731C116.725 93.6133 116.937 93.4424 117.105 93.231L117.381 93.708C117.19 93.9493 116.946 94.1428 116.667 94.273C116.337 94.4206 115.978 94.492 115.617 94.482ZM115.517 88.744C115.307 88.7439 115.101 88.7972 114.918 88.8989C114.735 89.0006 114.581 89.1472 114.47 89.325C114.186 89.7486 114.038 90.2482 114.044 90.758H116.86V90.499C116.877 90.0534 116.753 89.6137 116.505 89.243C116.396 89.0841 116.249 88.9552 116.077 88.8683C115.905 88.7814 115.713 88.7393 115.521 88.746L115.517 88.744ZM116.899 87.035V87.142H116.299L115.549 86.205L114.804 87.142H114.217V87.023L115.306 85.77H115.797L116.899 87.035ZM115.985 96.141H115.179V95.182H115.985V96.141Z" fill="#323232"/>
<path d="M120.659 93.9058C120.832 93.9069 121.003 93.8735 121.163 93.8076C121.323 93.7417 121.468 93.6445 121.59 93.5218C121.727 93.3826 121.833 93.2163 121.902 93.0336C121.971 92.8509 122.001 92.6557 121.99 92.4608H122.59L122.607 92.4948C122.619 92.7578 122.574 93.0204 122.476 93.2647C122.377 93.509 122.228 93.7293 122.037 93.9108C121.833 94.1068 121.592 94.2584 121.326 94.356C121.061 94.4537 120.779 94.4952 120.497 94.478C120.215 94.4608 119.939 94.3852 119.688 94.2561C119.437 94.127 119.215 93.947 119.037 93.7278C118.639 93.162 118.44 92.4806 118.47 91.7898V90.8418C118.441 90.1511 118.64 89.47 119.037 88.9038C119.224 88.6537 119.47 88.4536 119.753 88.3212C120.036 88.1888 120.347 88.1282 120.659 88.1448C120.923 88.1382 121.185 88.1884 121.428 88.2919C121.67 88.3954 121.888 88.5499 122.066 88.7448C122.255 88.957 122.4 89.2047 122.493 89.4736C122.585 89.7424 122.624 90.027 122.605 90.3108L122.594 90.3388H121.994C122.016 89.9185 121.88 89.5052 121.613 89.1798C121.497 89.0416 121.351 88.9312 121.186 88.8565C121.022 88.7817 120.843 88.7446 120.662 88.7478C120.434 88.7323 120.205 88.7801 120.002 88.8859C119.799 88.9918 119.629 89.1516 119.511 89.3478C119.255 89.8075 119.13 90.3288 119.15 90.8548V91.8048C119.129 92.3333 119.254 92.8576 119.511 93.3198C119.631 93.5128 119.801 93.6695 120.003 93.7728C120.206 93.876 120.432 93.922 120.659 93.9058Z" fill="#323232"/>
<path d="M127.273 86.7007V88.2577H128.332V88.8337H127.271V92.7897C127.247 93.08 127.306 93.3711 127.44 93.6297C127.487 93.7061 127.552 93.7691 127.63 93.8126C127.708 93.856 127.797 93.8785 127.886 93.8777C127.975 93.8776 128.063 93.872 128.151 93.8607C128.238 93.8494 128.335 93.8324 128.444 93.8097L128.534 94.3287C128.422 94.3808 128.303 94.4178 128.181 94.4387C128.037 94.4666 127.891 94.4807 127.744 94.4807C127.58 94.4879 127.417 94.4546 127.269 94.3838C127.121 94.313 126.992 94.2069 126.895 94.0747C126.659 93.6896 126.551 93.2398 126.587 92.7897V88.8327H125.741V88.2567H126.587V86.6997L127.273 86.7007Z" fill="#323232"/>
<path d="M131.979 88.8681L131.533 88.8341C131.387 88.8298 131.242 88.8559 131.107 88.9108C130.972 88.9657 130.85 89.0483 130.749 89.1531C130.523 89.4009 130.366 89.7031 130.292 90.0301V94.3631H129.615V88.2631H130.215L130.294 89.2731C130.412 88.9554 130.607 88.6717 130.861 88.4471C131.091 88.2498 131.385 88.1432 131.688 88.1471C131.76 88.1472 131.831 88.1539 131.902 88.1671C131.959 88.1766 132.016 88.1906 132.071 88.2091L131.979 88.8681Z" fill="#323232"/>
<path d="M132.611 90.866C132.583 90.1646 132.798 89.475 133.22 88.914C133.42 88.6744 133.671 88.4816 133.954 88.3493C134.237 88.217 134.545 88.1484 134.858 88.1484C135.17 88.1484 135.478 88.217 135.761 88.3493C136.044 88.4816 136.295 88.6744 136.495 88.914C136.92 89.4749 137.136 90.1661 137.107 90.869V91.769C137.138 92.4736 136.923 93.167 136.498 93.73C136.296 93.9679 136.045 94.159 135.762 94.2901C135.479 94.4212 135.171 94.4891 134.859 94.4891C134.547 94.4891 134.239 94.4212 133.956 94.2901C133.673 94.159 133.422 93.9679 133.22 93.73C132.795 93.167 132.58 92.4736 132.611 91.769V90.866ZM133.294 91.766C133.274 92.3041 133.415 92.8359 133.7 93.293C133.828 93.4813 134.001 93.6354 134.203 93.7419C134.404 93.8484 134.629 93.9041 134.857 93.9041C135.084 93.9041 135.309 93.8484 135.511 93.7419C135.712 93.6354 135.885 93.4813 136.013 93.293C136.301 92.8381 136.444 92.3069 136.425 91.769V90.869C136.443 90.3347 136.3 89.8073 136.013 89.356C135.885 89.1677 135.712 89.0136 135.511 88.9072C135.309 88.8007 135.084 88.745 134.857 88.745C134.629 88.745 134.404 88.8007 134.203 88.9072C134.001 89.0136 133.828 89.1677 133.7 89.356C133.417 89.8087 133.276 90.3355 133.294 90.869V91.766Z" fill="#323232"/>
<path d="M138.964 88.2588L139.02 89.2688C139.159 88.9407 139.382 88.6548 139.666 88.4398C139.941 88.2425 140.273 88.1397 140.611 88.1468C140.854 88.1347 141.097 88.1839 141.316 88.29C141.535 88.3961 141.724 88.5555 141.866 88.7538C142.2 89.3239 142.352 89.982 142.303 90.6408V94.3648H141.62V90.6468C141.665 90.139 141.561 89.629 141.32 89.1798C141.22 89.0407 141.086 88.929 140.931 88.8551C140.776 88.7812 140.605 88.7474 140.434 88.7568C140.274 88.7527 140.114 88.7808 139.965 88.8394C139.816 88.8979 139.68 88.9858 139.565 89.0978C139.316 89.3523 139.135 89.6657 139.04 90.0088V94.3648H138.363V88.2648L138.964 88.2588Z" fill="#323232"/>
<path d="M143.607 91.0121C143.572 90.2814 143.754 89.5566 144.132 88.9301C144.284 88.684 144.498 88.482 144.752 88.3444C145.007 88.2069 145.293 88.1385 145.582 88.1461C145.9 88.1393 146.213 88.2266 146.482 88.3971C146.752 88.5779 146.972 88.8233 147.123 89.1111L147.191 88.2591H147.767V94.3691C147.808 95.0207 147.614 95.6655 147.22 96.1861C147.027 96.4035 146.787 96.5744 146.518 96.6857C146.249 96.7971 145.958 96.8461 145.668 96.8291C145.406 96.826 145.145 96.789 144.892 96.7191C144.635 96.6534 144.388 96.5557 144.156 96.4281L144.342 95.8361C144.533 95.9554 144.74 96.0473 144.957 96.1091C145.184 96.1756 145.42 96.2093 145.657 96.2091C145.861 96.2248 146.066 96.1904 146.254 96.1088C146.442 96.0273 146.607 95.901 146.735 95.7411C146.995 95.3331 147.117 94.8527 147.085 94.3701V93.6311C146.927 93.8907 146.708 94.1077 146.447 94.2631C146.18 94.4136 145.878 94.4896 145.572 94.4831C145.291 94.4934 145.011 94.433 144.759 94.3074C144.507 94.1818 144.291 93.995 144.13 93.7641C143.757 93.1971 143.574 92.526 143.608 91.8481L143.607 91.0121ZM144.29 91.8471C144.265 92.3637 144.388 92.8767 144.646 93.3251C144.759 93.5046 144.918 93.6505 145.107 93.7478C145.295 93.845 145.506 93.89 145.718 93.8781C146.017 93.8873 146.31 93.7926 146.547 93.6101C146.786 93.4127 146.971 93.1572 147.083 92.8681V89.8441C146.972 89.5452 146.793 89.276 146.561 89.0571C146.333 88.8536 146.035 88.7461 145.729 88.7571C145.509 88.749 145.29 88.8035 145.099 88.9142C144.909 89.025 144.753 89.1876 144.651 89.3831C144.39 89.8859 144.266 90.4482 144.29 91.0141V91.8471Z" fill="#323232"/>
<path d="M155.899 91.8468C155.933 92.5247 155.752 93.196 155.382 93.7648C155.224 93.9941 155.011 94.1799 154.762 94.305C154.513 94.4301 154.236 94.4906 153.958 94.4808C153.645 94.4887 153.334 94.415 153.058 94.2668C152.796 94.1177 152.576 93.9039 152.42 93.6458V96.7098H151.743V88.2578H152.313L152.386 89.0988C152.538 88.8134 152.759 88.5709 153.029 88.3938C153.414 88.1629 153.872 88.0894 154.31 88.1887C154.747 88.288 155.129 88.5525 155.376 88.9268C155.751 89.5555 155.931 90.2808 155.895 91.0118L155.899 91.8468ZM155.21 91.0168C155.233 90.4503 155.107 89.8876 154.843 89.3858C154.741 89.1901 154.585 89.0272 154.395 88.9157C154.204 88.8043 153.986 88.7489 153.765 88.7558C153.459 88.7453 153.162 88.8527 152.933 89.0558C152.703 89.271 152.527 89.5386 152.422 89.8358V92.9198C152.528 93.2036 152.707 93.4544 152.941 93.6468C153.179 93.827 153.472 93.9199 153.77 93.9098C153.983 93.92 154.195 93.8732 154.384 93.7742C154.573 93.6752 154.732 93.5277 154.845 93.3468C155.107 92.8956 155.234 92.3782 155.209 91.8568L155.21 91.0168Z" fill="#323232"/>
<path d="M157.886 89.2229C158.034 88.9034 158.262 88.6278 158.549 88.4229C158.823 88.234 159.15 88.1354 159.483 88.1409C159.723 88.1295 159.963 88.1785 160.18 88.2833C160.396 88.3881 160.583 88.5454 160.724 88.7409C161.055 89.2994 161.207 89.9463 161.158 90.5939V94.3629H160.475V90.5829C160.514 90.0969 160.41 89.6101 160.175 89.1829C160.078 89.0451 159.948 88.9341 159.796 88.8602C159.645 88.7862 159.477 88.7517 159.309 88.7599C158.989 88.7532 158.678 88.8691 158.44 89.0839C158.186 89.3213 157.995 89.6192 157.887 89.9499V94.3669H157.21V85.5669H157.887L157.886 89.2229Z" fill="#323232"/>
<path d="M165.958 93.4107C165.817 93.7272 165.596 94.0008 165.315 94.2037C165.039 94.3922 164.712 94.4898 164.378 94.4827C164.129 94.4914 163.882 94.436 163.66 94.3218C163.438 94.2077 163.25 94.0386 163.112 93.8307C162.764 93.2143 162.606 92.5087 162.658 91.8027V88.2597H163.335V91.8107C163.295 92.3562 163.395 92.9029 163.626 93.3987C163.709 93.548 163.832 93.6715 163.98 93.7556C164.129 93.8398 164.298 93.8813 164.469 93.8757C164.812 93.8907 165.148 93.7793 165.414 93.5627C165.669 93.3335 165.851 93.0339 165.936 92.7017V88.2557H166.613V94.3557H166.004L165.958 93.4107ZM165.27 86.0107H166.099L166.11 86.0387L164.863 87.5107H164.282L165.27 86.0107Z" fill="#323232"/>
<path d="M169.14 86.7007V88.2577H170.201V88.8337H169.14V92.7897C169.116 93.08 169.175 93.3712 169.309 93.6297C169.355 93.7062 169.421 93.7692 169.499 93.8127C169.577 93.8562 169.666 93.8786 169.755 93.8777C169.844 93.8777 169.932 93.872 170.02 93.8607C170.107 93.8497 170.204 93.8327 170.313 93.8097L170.404 94.3287C170.292 94.3808 170.173 94.4178 170.051 94.4387C169.907 94.4666 169.761 94.4807 169.614 94.4807C169.45 94.4874 169.287 94.4539 169.139 94.3831C168.991 94.3124 168.863 94.2065 168.765 94.0747C168.53 93.6894 168.422 93.2397 168.458 92.7897V88.8327H167.612V88.2567H168.458V86.6997L169.14 86.7007Z" fill="#323232"/>
<path d="M174.513 88.2589L174.569 89.2069C174.71 88.8933 174.932 88.6228 175.212 88.4229C175.49 88.2354 175.82 88.139 176.155 88.1469C176.495 88.1369 176.826 88.2526 177.086 88.4719C177.366 88.7363 177.559 89.0794 177.639 89.4559C177.765 89.0858 177.986 88.7552 178.279 88.4969C178.559 88.2625 178.914 88.138 179.279 88.1469C179.525 88.1382 179.769 88.1936 179.987 88.3077C180.205 88.4219 180.39 88.5908 180.523 88.7979C180.861 89.4076 181.015 90.1024 180.966 90.7979V94.3639H180.283V90.7869C180.329 90.2427 180.225 89.6964 179.983 89.2069C179.891 89.0612 179.762 88.9423 179.61 88.8621C179.457 88.7819 179.286 88.7432 179.114 88.7499C178.929 88.7452 178.745 88.7897 178.583 88.879C178.42 88.9682 178.284 89.099 178.189 89.2579C177.952 89.6435 177.812 90.0812 177.783 90.5329V94.3639H177.106V90.7929C177.149 90.251 177.04 89.7079 176.793 89.2239C176.701 89.0764 176.573 88.9555 176.419 88.8734C176.266 88.7913 176.095 88.7507 175.921 88.7559C175.763 88.7487 175.605 88.7737 175.458 88.8294C175.31 88.8851 175.175 88.9703 175.061 89.0799C174.827 89.3281 174.666 89.6356 174.595 89.9689V94.3689H173.918V88.2689L174.513 88.2589Z" fill="#323232"/>
<path d="M182.197 90.8648C182.169 90.1634 182.384 89.4738 182.806 88.9128C183.006 88.6732 183.257 88.4804 183.54 88.3481C183.823 88.2158 184.131 88.1472 184.444 88.1472C184.756 88.1472 185.064 88.2158 185.347 88.3481C185.63 88.4804 185.881 88.6732 186.081 88.9128C186.506 89.4737 186.722 90.1649 186.693 90.8679V91.7679C186.724 92.4724 186.509 93.1658 186.084 93.7289C185.882 93.9667 185.631 94.1579 185.348 94.2889C185.065 94.42 184.757 94.4879 184.445 94.4879C184.133 94.4879 183.825 94.42 183.542 94.2889C183.259 94.1579 183.008 93.9667 182.806 93.7289C182.381 93.1658 182.166 92.4724 182.197 91.7679V90.8648ZM186.028 87.1978L186.011 87.2318H185.294L184.454 86.2668L183.608 87.2318H182.897L182.88 87.1978L184.149 85.8608H184.758L186.028 87.1978ZM182.88 91.7689C182.86 92.307 183.001 92.8387 183.286 93.2958C183.414 93.4841 183.587 93.6382 183.789 93.7447C183.99 93.8512 184.215 93.9069 184.443 93.9069C184.67 93.9069 184.895 93.8512 185.097 93.7447C185.298 93.6382 185.471 93.4841 185.599 93.2958C185.887 92.8409 186.03 92.3098 186.011 91.7719V90.8719C186.029 90.3375 185.886 89.8102 185.599 89.3589C185.471 89.1706 185.298 89.0165 185.097 88.91C184.895 88.8035 184.67 88.7478 184.443 88.7478C184.215 88.7478 183.99 88.8035 183.789 88.91C183.587 89.0165 183.414 89.1706 183.286 89.3589C183.003 89.8115 182.862 90.3384 182.88 90.8719V91.7689ZM186.417 85.0688H187.173L186.287 86.3778H185.74L186.417 85.0688Z" fill="#323232"/>
<path d="M188.945 86.7007V88.2577H190.006V88.8337H188.945V92.7897C188.921 93.08 188.98 93.3711 189.114 93.6297C189.161 93.7062 189.226 93.7692 189.304 93.8127C189.382 93.8562 189.471 93.8786 189.56 93.8777C189.649 93.8777 189.737 93.872 189.825 93.8607C189.912 93.8497 190.009 93.8327 190.118 93.8097L190.208 94.3287C190.096 94.3808 189.977 94.4178 189.855 94.4387C189.711 94.4666 189.565 94.4807 189.418 94.4807C189.254 94.4874 189.091 94.4539 188.943 94.3831C188.795 94.3124 188.667 94.2065 188.569 94.0747C188.333 93.6896 188.226 93.2398 188.261 92.7897V88.8327H187.415V88.2567H188.261V86.6997L188.945 86.7007Z" fill="#323232"/>
</svg>
