<svg xmlns="http://www.w3.org/2000/svg" width="16" height="16" viewBox="0 0 16 16">
  <g id="Group_27362" data-name="Group 27362" transform="translate(-578 -698)">
    <rect id="Rectangle_160298" data-name="Rectangle 160298" width="16" height="16" transform="translate(578 698)" fill="rgba(255,255,255,0)"/>
    <g id="Group_27360" data-name="Group 27360" transform="translate(578 680.346)">
      <g id="Group_27355" data-name="Group 27355" transform="translate(0 18.27)">
        <path id="Path_52097" data-name="Path 52097" d="M15.731,310.9a.89.89,0,0,0-.654-.269H10.615l-1.308,1.308a1.857,1.857,0,0,1-2.615,0l-1.3-1.308H.923a.891.891,0,0,0-.654.269.89.89,0,0,0-.269.654v3.077a.89.89,0,0,0,.269.654.89.89,0,0,0,.654.269H15.077a.919.919,0,0,0,.923-.923v-3.077A.89.89,0,0,0,15.731,310.9Zm-3.606,3.24a.6.6,0,1,1,.183-.433A.592.592,0,0,1,12.125,314.143Zm2.461,0a.6.6,0,1,1,.183-.433A.591.591,0,0,1,14.587,314.143Z" transform="translate(0 -300.787)" fill="#6e00c2"/>
        <path id="Path_52098" data-name="Path 52098" d="M95.567,28.549a.6.6,0,0,0,.865,0l4.308-4.308a.555.555,0,0,0,.135-.673.575.575,0,0,0-.567-.375H97.846V18.885a.624.624,0,0,0-.615-.615H94.769a.624.624,0,0,0-.615.615v4.308H91.692a.575.575,0,0,0-.567.375.555.555,0,0,0,.135.673Z" transform="translate(-88 -18.27)" fill="#6e00c2"/>
      </g>
    </g>
  </g>
</svg>
