<svg xmlns="http://www.w3.org/2000/svg" width="30" height="30" viewBox="0 0 30 30">
  <path id="Union_108" data-name="Union 108" d="M-14210.686,15927a.7.7,0,0,0-.135-.049,6,6,0,0,1-5.224-7.016,1.388,1.388,0,0,0-.516-1.48c-.513-.445-.97-.955-1.513-1.5a2.1,2.1,0,0,1-.2.291q-3.36,3.369-6.731,6.728a1.705,1.705,0,0,1-.629.4c-2.437.822-4.879,1.628-7.32,2.44a.674.674,0,0,1-.763-.092.67.67,0,0,1-.093-.764c.81-2.432,1.61-4.865,2.429-7.293a1.687,1.687,0,0,1,.389-.634q3.352-3.378,6.726-6.734a2.56,2.56,0,0,1,.3-.218c-.12-.128-.184-.2-.252-.268-.559-.56-1.127-1.109-1.672-1.683a.518.518,0,0,0-.582-.16,6.03,6.03,0,0,1-7.11-3.708,15.444,15.444,0,0,1-.414-1.573v-1.172c.148-.562.266-1.136.452-1.687.213-.628.664-.711,1.13-.247q1.244,1.241,2.485,2.484c.059.06.126.113.16.144.661-.661,1.306-1.308,2-2a1.5,1.5,0,0,1-.237-.17q-1.247-1.238-2.486-2.484a.594.594,0,0,1,.2-1.049,5.841,5.841,0,0,1,2.217-.478,6.063,6.063,0,0,1,6,7.614.368.368,0,0,0,.107.411c.606.595,1.2,1.2,1.8,1.8.053.053.114.1.22.186a2.9,2.9,0,0,1,.225-.288q4.491-4.5,8.985-8.987a2.234,2.234,0,0,1,3.349-.007q1.3,1.291,2.587,2.589a2.241,2.241,0,0,1,0,3.432q-4.479,4.485-8.964,8.968c-.08.08-.155.164-.247.262.693.694,1.365,1.372,2.049,2.04a.4.4,0,0,0,.29.037c.366-.057.727-.159,1.094-.189a6.069,6.069,0,0,1,6.1,8.347c-.232.568-.674.656-1.113.218q-1.233-1.229-2.464-2.463c-.072-.073-.149-.143-.174-.166l-1.989,1.983c.068.061.168.14.257.229q1.225,1.219,2.442,2.443a.59.59,0,0,1-.193,1.035,2.277,2.277,0,0,1-.356.134c-.48.121-.962.234-1.443.351Zm-6.482-10.8c.055.058.118.129.186.2.7.7,1.389,1.4,2.093,2.09a.712.712,0,0,1,.189.818,4.889,4.889,0,0,0,4.095,6.5,3.93,3.93,0,0,0,1.636-.119c-.829-.828-1.624-1.619-2.417-2.414-.386-.386-.388-.668-.009-1.048q1.3-1.307,2.608-2.609a.612.612,0,0,1,1.006,0c.74.735,1.479,1.477,2.218,2.214.065.065.138.126.232.212a4.441,4.441,0,0,0,.073-1.915,4.893,4.893,0,0,0-6.437-3.809.747.747,0,0,1-.869-.2c-.55-.567-1.117-1.119-1.673-1.681-.2-.2-.381-.412-.56-.607Zm-15.214,9.188,2.5-.831-1.672-1.674C-14231.817,15923.684-14232.091,15924.506-14232.382,15925.384Zm1.3-3.9c-.02.063.047.178.105.236q1.122,1.137,2.258,2.256a.363.363,0,0,0,.295.083c.559-.17,1.11-.361,1.647-.54l-3.748-3.75C-14230.705,15920.326-14230.9,15920.9-14231.08,15921.488Zm9.444-6.881a.578.578,0,0,1,.1.723,1.538,1.538,0,0,1-.229.264q-1.655,1.66-3.312,3.313c-.752.752-1.507,1.5-2.229,2.218l1.721,1.716q8.638-8.641,17.3-17.307l-1.744-1.758a1.855,1.855,0,0,1-.182.256q-3.746,3.751-7.494,7.5c-.4.4-.725.451-1,.162s-.22-.6.169-.985q3.749-3.749,7.494-7.5c.081-.08.157-.163.2-.208l-1.711-1.715-17.311,17.313,1.709,1.715c.06-.057.138-.127.212-.2q2.66-2.659,5.321-5.32a2.041,2.041,0,0,1,.283-.253.545.545,0,0,1,.3-.089A.594.594,0,0,1-14221.636,15914.607Zm-3.8-6.676c.255.282.535.542.8.812l1.423,1.422c.789-.79,1.558-1.562,2.342-2.349-.054-.058-.123-.137-.2-.211-.662-.663-1.314-1.336-1.991-1.984a.836.836,0,0,1-.241-.988,4.886,4.886,0,0,0-2.633-6.014,4.418,4.418,0,0,0-3.107-.247,1.262,1.262,0,0,0,.232.214q1.091,1.084,2.176,2.174a.628.628,0,0,1-.006,1.05q-1.283,1.285-2.567,2.567c-.4.4-.676.4-1.069,0q-1.09-1.085-2.172-2.177a1.158,1.158,0,0,1-.151-.289l-.1.1c-.021.075-.045.149-.059.226a4.889,4.889,0,0,0,2.575,5.191,4.791,4.791,0,0,0,3.83.283,1.068,1.068,0,0,1,.344-.063A.747.747,0,0,1-14225.437,15907.932Zm15.716-9.511c-.668.64-1.3,1.313-1.934,1.951l4.291,4.3c.625-.623,1.27-1.248,1.893-1.893a1.01,1.01,0,0,0,.012-1.432q-1.43-1.468-2.9-2.9a1.008,1.008,0,0,0-.7-.285A.954.954,0,0,0-14209.721,15898.421Zm-11.016,14.712a.574.574,0,0,1,.595-.557.562.562,0,0,1,.564.582.583.583,0,0,1-.575.579h0A.592.592,0,0,1-14220.736,15913.133Z" transform="translate(14233.999 -15897)" fill="#b5b5b5"/>
</svg>
