<svg width="18" height="18" viewBox="0 0 18 18" fill="none" xmlns="http://www.w3.org/2000/svg">
<path d="M9.37419 0H0.749958C0.33747 0 0 0.337192 0 0.749305V17.2343C0 17.6464 0.33747 17.9836 0.749958 17.9836H12.7864C13.1989 17.9836 13.5363 17.6464 13.5363 17.2343V4.12123L9.37419 0Z" fill="#F2F2F2"/>
<path d="M9.375 3.37192C9.375 3.78404 9.71247 4.12123 10.1249 4.12123H13.4996L9.375 0V3.37192Z" fill="#CDD6E0"/>
<path d="M11.9618 8.54199H1.5752V9.47865H11.9618V8.54199Z" fill="#CDD6E0"/>
<path d="M11.9618 11.3521H1.5752V12.2887H11.9618V11.3521Z" fill="#CDD6E0"/>
<path d="M6.59974 14.1997H1.5752V15.1364H6.59974V14.1997Z" fill="#CDD6E0"/>
<path d="M11.9618 5.69482H1.5752V6.63148H11.9618V5.69482Z" fill="#CDD6E0"/>
<path d="M7.53619 2.84717H1.57422V3.78383H7.53619V2.84717Z" fill="#FFD15C"/>
<path d="M13.4596 14.6839L14.6787 13.4658L13.8306 12.6184L12.6115 13.8365L13.4596 14.6839Z" fill="#40596B"/>
<path d="M10.124 15.2107C12.9404 15.2107 15.2235 12.9295 15.2235 10.1154C15.2235 7.30129 12.9404 5.02002 10.124 5.02002C7.30757 5.02002 5.02441 7.30129 5.02441 10.1154C5.02441 12.9295 7.30757 15.2107 10.124 15.2107Z" fill="#40596B"/>
<path d="M10.1243 14.0121C12.278 14.0121 14.0239 12.2676 14.0239 10.1157C14.0239 7.96373 12.278 6.21924 10.1243 6.21924C7.97054 6.21924 6.22461 7.96373 6.22461 10.1157C6.22461 12.2676 7.97054 14.0121 10.1243 14.0121Z" fill="#84DBFF"/>
<path d="M17.3977 15.1735L14.9229 13.2627L13.3105 14.8737L15.2229 17.3465L15.2604 17.384L17.3977 15.1735C17.3977 15.2109 17.3977 15.2109 17.3977 15.1735Z" fill="#FFD15C"/>
<path d="M17.436 15.2114L15.2236 17.4219C15.8236 18.1338 16.8735 18.2087 17.5484 17.5343C18.1859 16.8599 18.1484 15.8109 17.436 15.2114Z" fill="#FF7058"/>
</svg>
