<svg width="18" height="18" viewBox="0 0 18 18" fill="none" xmlns="http://www.w3.org/2000/svg">
<path d="M9 18C13.9706 18 18 13.9706 18 9C18 4.02944 13.9706 0 9 0C4.02944 0 0 4.02944 0 9C0 13.9706 4.02944 18 9 18Z" fill="#FFE36E"/>
<path d="M10.157 13.3026C10.157 13.5314 10.0891 13.755 9.96203 13.9452C9.83494 14.1354 9.6543 14.2836 9.44296 14.3712C9.23162 14.4587 8.99907 14.4816 8.77471 14.437C8.55035 14.3923 8.34426 14.2822 8.18251 14.1204C8.02076 13.9587 7.9106 13.7526 7.86597 13.5282C7.82135 13.3039 7.84425 13.0713 7.93179 12.86C8.01933 12.6486 8.16758 12.468 8.35778 12.3409C8.54798 12.2138 8.7716 12.146 9.00035 12.146C9.3071 12.146 9.60129 12.2679 9.81819 12.4848C10.0351 12.7017 10.157 12.9958 10.157 13.3026Z" fill="#FF8500"/>
<path d="M9.00035 10.6152C8.6936 10.6152 8.39941 10.4933 8.18251 10.2764C7.96561 10.0595 7.84375 9.76534 7.84375 9.45859V4.69859C7.84375 4.39184 7.96561 4.09766 8.18251 3.88075C8.39941 3.66385 8.6936 3.54199 9.00035 3.54199C9.3071 3.54199 9.60128 3.66385 9.81819 3.88075C10.0351 4.09766 10.1569 4.39184 10.1569 4.69859V9.45859C10.1569 9.76534 10.0351 10.0595 9.81819 10.2764C9.60128 10.4933 9.3071 10.6152 9.00035 10.6152Z" fill="#FF8500"/>
</svg>
