<svg width="18" height="18" viewBox="0 0 18 18" fill="none" xmlns="http://www.w3.org/2000/svg">
<path d="M9.00064 16.9924L12.5664 16.0919C14.6017 14.4019 15.8981 11.8527 15.8981 9.00042C15.8981 4.60094 12.8146 0.921691 8.69085 0.00585938C3.86346 0.168664 0 4.13334 0 9.00038C0 11.5003 1.0195 13.762 2.66519 15.3929L9.00064 16.9924Z" fill="#CBE2FF"/>
<path d="M15.7112 8.99976C15.7112 11.9498 14.2916 14.568 12.0984 16.2094L15.3338 15.3923C16.9796 13.7615 17.9993 11.4998 17.9993 8.99976C17.9993 4.02933 13.97 0 8.99953 0C8.61198 0 8.23012 0.0245384 7.85547 0.0720684C12.2857 0.634132 15.7112 4.41691 15.7112 8.99976Z" fill="#BED8FB"/>
<path d="M11.2359 3.40844C11.2359 2.94878 10.8633 2.57617 10.4036 2.57617H7.53555C6.4777 2.57617 5.62012 3.43375 5.62012 4.49161V6.61826H12.3773V4.52177C12.3773 4.06212 12.0047 3.68951 11.545 3.68951H11.517C11.3617 3.68951 11.2359 3.56368 11.2359 3.40844Z" fill="#365E7D"/>
<path d="M11.5457 3.68954H11.5177C11.3624 3.68954 11.2366 3.56368 11.2366 3.40844C11.2366 2.94878 10.864 2.57617 10.4043 2.57617H10.0898V6.61826H12.378V4.52177C12.378 4.06219 12.0054 3.68954 11.5457 3.68954Z" fill="#2B4D66"/>
<path d="M14.9425 13.0903C14.7225 12.873 14.4503 12.7049 14.1413 12.6071L11.6843 11.8292L9.00024 11.7349L6.31508 11.8292L3.85804 12.6071C3.02683 12.8703 2.46191 13.6417 2.46191 14.5135V15.1848C4.03649 16.8486 6.23939 17.9117 8.69084 17.9944C11.4375 17.3844 13.7226 15.5484 14.9425 13.0903Z" fill="#4A80AA"/>
<path d="M15.5371 15.1846V14.5133C15.5371 13.8968 15.2545 13.3309 14.7952 12.959C13.4905 15.6176 10.9133 17.5386 7.85742 17.927C8.22627 17.9737 8.60194 17.9987 8.98331 17.9993C9.34973 17.9988 9.7113 17.9775 10.0669 17.9367C12.2125 17.6832 14.1268 16.6748 15.5371 15.1846Z" fill="#407093"/>
<path d="M9.20369 17.8649C9.74821 16.7839 11.1661 13.7143 10.7618 11.7968L9.0005 11.1113L7.23753 11.7969C6.82073 13.7735 8.34035 16.9744 8.84346 17.9592C8.96446 17.9302 9.08459 17.8987 9.20369 17.8649Z" fill="#E4F6FF"/>
<path d="M10.1312 17.0077L9.41706 14.1982H8.58153L7.86914 17.0001L8.75006 17.9808C8.97369 17.9296 9.19421 17.8702 9.41133 17.803L10.1312 17.0077Z" fill="#E28086"/>
<path d="M8.76445 17.9961C8.8374 17.998 8.91049 17.9993 8.98386 17.9994C9.06876 17.9993 9.15338 17.9978 9.23775 17.9954L9.6915 17.4941C9.33435 17.6194 8.96695 17.7229 8.59082 17.8028L8.76445 17.9961Z" fill="#DD636E"/>
<path d="M10.5027 11.5379V9.95361H7.49414V11.5379C7.49414 12.3687 8.99844 13.2762 8.99844 13.2762C8.99844 13.2762 10.5027 12.3687 10.5027 11.5379Z" fill="#FFDDCE"/>
<path d="M12.3773 6.33949H11.8022C11.4823 6.33949 11.2231 6.08022 11.2231 5.76038V5.44345C11.2231 5.02682 10.8154 4.73226 10.4199 4.863C9.49729 5.16794 8.50113 5.16801 7.57851 4.86321L7.57742 4.86286C7.18186 4.73219 6.7743 5.02675 6.7743 5.44334V5.76041C6.7743 6.08025 6.51503 6.33952 6.19519 6.33952H5.62012V7.28654C5.62012 7.52851 5.81628 7.72471 6.05829 7.72471C6.13465 7.72471 6.19677 7.78451 6.20159 7.86073C6.29397 9.32558 7.51059 10.4852 8.99872 10.4852C10.4868 10.4852 11.7035 9.32558 11.7959 7.86073C11.8007 7.78455 11.8628 7.72471 11.9391 7.72471C12.1811 7.72471 12.3773 7.52855 12.3773 7.28654V6.33949H12.3773Z" fill="#FFDDCE"/>
<path d="M11.8019 6.33938C11.4821 6.33938 11.2228 6.08011 11.2228 5.76026V5.44334C11.2228 5.02671 10.8152 4.73215 10.4196 4.86289C10.3104 4.89899 10.2 4.93049 10.0889 4.95805V8.08589C10.0735 9.10357 9.5159 9.98927 8.69238 10.4679C8.79296 10.4789 8.89498 10.485 8.99844 10.485C10.4866 10.485 11.7032 9.3254 11.7956 7.86055C11.8004 7.78437 11.8625 7.72453 11.9389 7.72453C12.1808 7.72453 12.377 7.52837 12.377 7.28636V6.33934H11.8019V6.33938Z" fill="#FFCBBE"/>
<path d="M7.4942 11.1113L6.31445 12.0699L7.55164 13.5996C7.70214 13.7461 7.93902 13.7551 8.10024 13.6205L9.03062 12.8433L7.4942 11.1113Z" fill="#F4FBFF"/>
<path d="M10.503 11.1113L9.03027 12.8433L9.90473 13.591C10.0649 13.728 10.3029 13.7211 10.4549 13.5751L11.6833 12.0699L10.503 11.1113Z" fill="#F4FBFF"/>
<path d="M7.49514 11.1113L5.76353 11.9621C5.6317 12.0268 5.57875 12.1872 5.64608 12.3177L5.98532 12.9755C6.07325 13.1459 6.0408 13.3536 5.9051 13.4891C5.83525 13.5588 5.75959 13.6343 5.69403 13.6998C5.57668 13.8169 5.53453 13.99 5.58621 14.1476C5.9958 15.3962 7.9671 17.3055 8.71313 17.9963C8.7633 17.9976 8.81357 17.9985 8.86395 17.9991C8.32294 16.9468 6.40582 12.9489 7.49514 11.1113Z" fill="#365E7D"/>
<path d="M12.0941 13.4891C11.9584 13.3536 11.926 13.1459 12.0139 12.9754L12.3532 12.3177C12.4205 12.1872 12.3675 12.0268 12.2357 11.962L10.5041 11.1113C11.5931 12.9484 9.67734 16.9446 9.13574 17.9983C9.18665 17.9974 9.23745 17.9961 9.28814 17.9944C10.0357 17.302 12.0038 15.395 12.413 14.1476C12.4647 13.99 12.4226 13.817 12.3052 13.6998C12.2396 13.6343 12.164 13.5588 12.0941 13.4891Z" fill="#365E7D"/>
<path d="M9.03138 12.8433L8.11523 13.6084L8.58203 14.1983H9.41756L9.88439 13.5736L9.03138 12.8433Z" fill="#DD636E"/>
<path d="M17.0086 14.8885C17.0086 13.4328 16.0549 12.2007 14.7385 11.7808C13.0895 11.8587 11.7764 13.2201 11.7764 14.8885C11.7764 16.3923 12.8373 17.645 14.2554 17.9349C14.257 17.9352 14.2585 17.9355 14.2601 17.9358C14.5753 17.9998 14.9039 17.9554 15.1922 17.8127C16.2684 17.2797 17.0086 16.1708 17.0086 14.8885Z" fill="#B446FF"/>
<path d="M14.8883 11.7769C14.6715 11.7769 14.4601 11.7996 14.2559 11.8419C15.6697 12.1352 16.7323 13.3876 16.7323 14.8883C16.7323 16.3891 15.6697 17.6415 14.2559 17.9348C14.4601 17.9771 14.6715 17.9998 14.8883 17.9998C16.6067 17.9998 17.9998 16.6068 17.9998 14.8883C17.9998 13.1699 16.6067 11.7769 14.8883 11.7769Z" fill="#8218D1"/>
<path d="M14.8879 16.7319C15.9063 16.7319 16.7319 15.9063 16.7319 14.8879C16.7319 13.8695 15.9063 13.0439 14.8879 13.0439C13.8695 13.0439 13.0439 13.8695 13.0439 14.8879C13.0439 15.9063 13.8695 16.7319 14.8879 16.7319Z" fill="#F0F0F3"/>
<path d="M15.8507 14.5488H15.1638V13.8619C15.1638 13.7119 15.0422 13.5903 14.8922 13.5903C14.7422 13.5903 14.6206 13.7119 14.6206 13.8619V14.5488H13.9337C13.7837 14.5488 13.6621 14.6704 13.6621 14.8204C13.6621 14.9704 13.7837 15.092 13.9337 15.092H14.6206V15.7789C14.6206 15.9289 14.7422 16.0505 14.8922 16.0505C15.0422 16.0505 15.1638 15.9289 15.1638 15.7789V15.092H15.8507C16.0007 15.092 16.1223 14.9704 16.1223 14.8204C16.1223 14.6704 16.0007 14.5488 15.8507 14.5488Z" fill="#695E66"/>
</svg>
