<svg width="17" height="17" viewBox="0 0 17 17" fill="none" xmlns="http://www.w3.org/2000/svg">
<path d="M8.5 17C13.1944 17 17 13.1944 17 8.5C17 3.80558 13.1944 0 8.5 0C3.80558 0 0 3.80558 0 8.5C0 13.1944 3.80558 17 8.5 17Z" fill="#00BA00"/>
<path fill-rule="evenodd" clip-rule="evenodd" d="M5.84623 12.6455L2.7375 9.31821C2.3119 8.86269 2.33633 8.14199 2.79185 7.71639C3.24737 7.29079 3.96806 7.31529 4.39366 7.77074L6.7916 10.3372L10.5872 6.79083C10.6214 6.7589 10.657 6.72966 10.6939 6.70275L12.4788 5.03508C12.9344 4.60948 13.6551 4.63397 14.0807 5.08949C14.5063 5.54494 14.4818 6.2657 14.0263 6.69131L8.57466 11.7849L8.56884 11.7787L6.68304 13.5407L5.84623 12.6451V12.6455Z" fill="white"/>
</svg>
