<svg id="Verified" xmlns="http://www.w3.org/2000/svg" width="13.103" height="16" viewBox="0 0 13.103 16">
  <g id="success">
    <path id="bg" d="M988.724,228.52v-4.861a9.666,9.666,0,0,1-6.55-2.3,9.666,9.666,0,0,1-6.55,2.3v4.861s-.254,6.154,6.55,8.841C988.978,234.674,988.724,228.52,988.724,228.52Z" transform="translate(-975.623 -221.361)" fill="#06983c"/>
    <path id="tick" d="M981.563,232.49a.7.7,0,0,1-.48-.192l-2.7-2.563a.7.7,0,0,1,.961-1.01l2.181,2.074,3.982-4.341a.7.7,0,1,1,1.027.942l-4.462,4.864a.7.7,0,0,1-.49.226Z" transform="translate(-975.623 -221.361)" fill="#fff"/>
  </g>
</svg>
