<svg xmlns="http://www.w3.org/2000/svg" width="13.102" height="16" viewBox="0 0 13.102 16">
  <g id="Group_12804" data-name="Group 12804" transform="translate(-203.648 -359)">
    <path id="Path_13883" data-name="Path 13883" d="M1004.474,228.52v-4.861a9.666,9.666,0,0,1-6.55-2.3,9.666,9.666,0,0,1-6.55,2.3v4.861s-.254,6.154,6.55,8.841C1004.728,234.674,1004.474,228.52,1004.474,228.52Z" transform="translate(-787.725 137.639)" fill="#ff8500"/>
    <path id="Union_68" data-name="Union 68" d="M-17773.826,21357.1a.707.707,0,0,1,.709-.707.707.707,0,0,1,.707.707.707.707,0,0,1-.707.707A.707.707,0,0,1-17773.826,21357.1Zm-.016-2.24-.16-5.1a.737.737,0,0,1,.734-.756h.3a.732.732,0,0,1,.729.75l-.141,5.109a.727.727,0,0,1-.729.707A.731.731,0,0,1-17773.842,21354.857Z" transform="translate(17983.438 -20986.43)" fill="#fff" stroke="rgba(0,0,0,0)" stroke-miterlimit="10" stroke-width="1"/>
  </g>
</svg>
